<?xml version="1.0" standalone="no"?>
<!DOCTYPE svg PUBLIC "-//W3C//DTD SVG 1.1//EN" "http://www.w3.org/Graphics/SVG/1.1/DTD/svg11.dtd" >
<svg xmlns="http://www.w3.org/2000/svg">
<metadata></metadata>
<defs>
<font id="klartext_monolight" horiz-adv-x="520" >
<font-face units-per-em="1000" ascent="750" descent="-250" />
<missing-glyph horiz-adv-x="500" />
<glyph horiz-adv-x="0" />
<glyph horiz-adv-x="333" />
<glyph unicode=" " />
<glyph unicode="!" d="M239 154v490q0 6 24 6q25 0 25 -6v-490q0 -6 -25 -6q-24 0 -24 6zM239 5v61q0 7 25 7h8q16 -2 16 -7v-61q0 -5 -24 -5h-8q-17 0 -17 5z" />
<glyph unicode="&#x22;" d="M201 588v92q0 7 24 7h8q17 -2 17 -7v-92q0 -7 -25 -7h-8q-16 2 -16 7zM280 588v92q0 7 24 7h8q17 -2 17 -7v-92q0 -7 -25 -7h-8q-16 2 -16 7z" />
<glyph unicode="#" d="M154 97v124h-124q-6 0 -6 24v8q0 16 6 16h124v114h-124q-6 0 -6 24v8q0 16 6 16h124v123q0 7 24 7h8q16 -2 16 -7v-123h113v123q0 7 25 7h8q16 -2 16 -7v-123h123q7 0 7 -24v-8q-2 -16 -7 -16h-123v-114h123q7 0 7 -24v-8q-2 -16 -7 -16h-123v-124q0 -6 -24 -6h-8 q-17 0 -17 6v124h-113v-124q0 -6 -24 -6h-8q-16 0 -16 6zM202 269h113v114h-113v-114z" />
<glyph unicode="$" d="M54 174q0 7 24 7q25 0 25 -7q0 -34 9 -58.5t21.5 -37t32.5 -19.5t34.5 -8.5t34.5 -1.5v274q-35 12 -50.5 18t-44 21.5t-41.5 31t-24.5 42.5t-11.5 61q0 40 11 68.5t27 44.5t41 25t45.5 11.5t47.5 3.5v43q0 7 24 7q25 0 25 -7v-44q32 -1 57 -6.5t53.5 -21.5t44.5 -52 t16 -89q0 -7 -24 -7q-25 0 -25 7q0 40 -11.5 66t-33 37t-38 14.5t-39.5 3.5v-242q31 -10 49 -16.5t46.5 -23t44.5 -35t28.5 -49.5t12.5 -69q0 -43 -11.5 -74t-28 -48t-43 -27t-47.5 -13t-51 -4v-42q0 -7 -25 -7q-24 0 -24 7v42q-28 1 -48.5 4t-47.5 13.5t-44 28t-29 50.5 t-12 78zM235 374v227q-26 0 -42.5 -2.5t-38 -11.5t-32.5 -31.5t-11 -58.5q0 -29 10 -50t31 -35t37.5 -21.5t45.5 -16.5zM284 49q23 0 37.5 1t34.5 7.5t31.5 18.5t20 35t8.5 56t-10.5 57t-32.5 40t-40 24t-49 19v-258z" />
<glyph unicode="%" d="M121 15l231 636q2 3 6 3q9 0 24.5 -7t15.5 -11v-1l-231 -636q-1 -3 -6 -3q-9 0 -24.5 6t-15.5 11v2zM125 313q-20 0 -30 1t-27 5t-26 14.5t-19 28.5t-14 48t-4 71q0 60 9 97t29 51.5t35.5 17.5t46.5 3q24 0 37 -1t32.5 -10t29 -25.5t17.5 -50t8 -82.5q0 -60 -9 -96.5 t-29.5 -51t-36.5 -17.5t-49 -3zM125 362q32 0 44.5 4.5t21.5 30.5t9 84q0 43 -4.5 68.5t-16 36.5t-21.5 13t-31 2q-20 0 -28 -1t-19.5 -6.5t-15.5 -18t-7.5 -35.5t-3.5 -59q0 -44 3.5 -68.5t14.5 -35.5t21 -13t33 -2zM391 0q-24 0 -36.5 1t-31.5 9.5t-28.5 25.5t-17 50 t-7.5 82q0 60 9 96.5t29.5 51t36 17.5t46.5 3q20 0 30.5 -1t27.5 -5t26.5 -15t19.5 -28.5t14.5 -47.5t4.5 -71q0 -60 -9 -96.5t-29.5 -51t-36.5 -17.5t-48 -3zM391 48q24 0 34.5 2t21.5 13t14.5 36t3.5 69t-4.5 69.5t-16.5 36t-22 12.5t-31 2q-23 0 -33 -2t-21 -13 t-14.5 -36t-3.5 -69q0 -36 3 -58.5t7 -35.5t15 -18.5t19.5 -6.5t27.5 -1z" />
<glyph unicode="&#x26;" d="M237 48q75 0 105 20t34 62q-30 31 -107.5 97t-96.5 84q-24 -5 -39.5 -14.5t-23.5 -19t-12 -29.5t-4.5 -32.5t-0.5 -40.5q0 -25 0.5 -36.5t4.5 -29.5t13 -26.5t25 -18t41 -13t61 -3.5zM189 364q19 2 51 2q31 0 52.5 6.5t32.5 15t16.5 26t6.5 30.5t1 38q0 31 -2 46.5 t-11.5 35.5t-33.5 28.5t-63 8.5q-42 0 -68 -8t-37 -25t-14 -32t-3 -40q0 -34 12.5 -59t59.5 -73zM443 7q0 38 -29 80q-22 -87 -176 -87q-40 0 -71 5.5t-51.5 14t-34.5 24t-21 28t-11 34.5t-4.5 36.5t-0.5 39.5q0 36 2 56t10.5 44.5t28 40.5t51.5 27q-37 43 -52 73.5 t-15 64.5q0 25 1 39.5t10 41t25.5 41.5t50.5 27t83 12q45 0 76.5 -11.5t47.5 -26.5t24 -41.5t9.5 -43.5t1.5 -46q0 -83 -31.5 -122t-127.5 -40q122 -105 143 -127v72q0 7 24 7t24 -7v-117q63 -73 63 -139q0 -7 -25 -7t-25 7z" />
<glyph unicode="'" d="M236 588v92q0 7 25 7h8q16 -2 16 -7v-92q0 -7 -24 -7h-8q-17 2 -17 7z" />
<glyph unicode="(" d="M390 -42q7 0 7 -24q0 -25 -7 -25q-25 0 -39.5 1t-40.5 7t-41.5 17.5t-35.5 35.5t-31 57.5t-19 86.5t-8 120v219q0 67 8 120t19 86.5t31 57.5t35.5 35.5t41.5 17.5t40.5 7t39.5 1q7 0 7 -25q0 -24 -7 -24q-61 0 -86 -14q-80 -44 -80 -262v-219q0 -79 11 -134.5t24.5 -82.5 t39 -41.5t41 -16t43.5 -1.5h7z" />
<glyph unicode=")" d="M129 -91q-7 0 -7 25q0 24 7 24h7q28 0 43.5 1.5t41 16t39 41.5t24.5 82.5t11 134.5v219q0 77 -10.5 131.5t-24 82t-37.5 42.5t-40.5 17.5t-42.5 2.5q-13 0 -15.5 3.5t-2.5 20.5q0 25 7 25q25 0 39.5 -1t40.5 -7t41.5 -17.5t35.5 -35.5t31 -57.5t19 -86.5t8 -120v-219 q0 -67 -8 -120t-19 -86.5t-31 -57.5t-35.5 -35.5t-41.5 -17.5t-40.5 -7t-39.5 -1z" />
<glyph unicode="*" d="M236 97v177l-138 -115q-4 0 -17 15t-13 20q0 1 155 132l-153 128q-2 2 -2 3q0 5 12.5 20t17.5 15q2 0 3 -1l135 -113v176q0 7 25 7t25 -7v-176l135 113q1 1 2 1q5 0 17.5 -14.5t12.5 -20.5q0 -4 -155 -131q34 -29 74.5 -63t60.5 -51l20 -17q0 -6 -12.5 -21t-17.5 -15 q-62 50 -137 115v-177q0 -6 -25 -6t-25 6z" />
<glyph unicode="+" d="M237 127v174h-174q-7 0 -7 25q0 24 7 24h174v174q0 7 24 7q25 0 25 -7v-174h174q7 0 7 -24q0 -25 -7 -25h-174v-174q0 -6 -25 -6q-24 0 -24 6z" />
<glyph unicode="," d="M252 -75v75h-12q-6 0 -6 21v7q0 15 6 15h55v-118q0 -6 -22 -6q-21 0 -21 6z" />
<glyph unicode="-" d="M101 302q-6 0 -6 24t6 24h317q7 0 7 -24t-7 -24h-317z" />
<glyph unicode="." d="M234 5v61q0 7 25 7h8q16 -2 16 -7v-61q0 -5 -24 -5h-8q-17 0 -17 5z" />
<glyph unicode="/" d="M121 15q144 390 230 636q1 3 6 3q9 0 25 -7t16 -11v-1l-231 -636q-1 -3 -6 -3q-11 0 -25.5 6.5t-14.5 10.5v2z" />
<glyph unicode="0" d="M262 0q-19 0 -29.5 0.5t-30 3.5t-31 8t-28.5 16.5t-27.5 27.5t-22.5 40.5t-18.5 56t-11 75.5t-4.5 97q0 67 7.5 120t18 86.5t29 57.5t33.5 35.5t39.5 17.5t37.5 7t37 1q25 0 38.5 -1t38 -7t39 -17.5t32.5 -35.5t28 -58t17 -86.5t7 -119.5t-7 -119.5t-17 -86.5t-28 -58 t-32 -35.5t-38.5 -17.5t-38 -7t-38.5 -1zM260 601h-7q-18 0 -27.5 -0.5t-27.5 -5.5t-28.5 -15t-24 -30t-20.5 -49t-12.5 -73.5t-5.5 -102.5q0 -118 24 -183q18 34 115.5 224t107.5 208q-5 5 -10 9t-10.5 6.5t-10 4.5t-11 3.5t-10 2t-11.5 1t-10.5 0.5h-10.5h-10zM261 48 q55 0 76 11q75 38 75 265q0 139 -29 202q-112 -224 -226 -440q14 -19 35.5 -28t32 -9.5t36.5 -0.5z" />
<glyph unicode="1" d="M107 0q-7 0 -7 24t7 24h159v547h-18q-2 0 -58 -47.5t-60 -51.5q-1 -1 -3 -1q-5 0 -17 15.5t-12 20.5l24 21q24 21 55 47.5t44 36.5q18 14 30 14h64v-602h156q6 0 6 -24t-6 -24h-364z" />
<glyph unicode="2" d="M456 48q6 0 6 -24t-6 -24h-384v60q0 36 12 69t26 55t45 49t49 40t58 40q67 45 99.5 84.5t32.5 93.5q0 39 -9.5 62.5t-31.5 33t-40.5 12t-53.5 2.5q-30 0 -48 -3t-39.5 -14t-31.5 -37.5t-10 -69.5q0 -7 -24 -7q-25 0 -25 7q0 49 13.5 84t31 51.5t46 26t45 10.5t42.5 1 q29 0 44.5 -1t46 -9t47.5 -23.5t31 -47.5t14 -78q0 -39 -13.5 -73.5t-39 -62t-47 -45t-52.5 -38.5q-88 -57 -128.5 -101.5t-40.5 -110.5v-12h335z" />
<glyph unicode="3" d="M77 477q0 48 13.5 82.5t31 51.5t45.5 26.5t46.5 11t43.5 1.5q21 0 35.5 -1t43 -10.5t46 -27t32 -54t14.5 -87.5q0 -26 -5 -47.5t-12 -35.5t-16.5 -25.5t-16.5 -17t-14 -10t-8 -5.5l6 -3q7 -3 13 -5.5t15 -8.5t16.5 -13.5t15.5 -19t14 -25.5t9.5 -33t3.5 -41 q0 -37 -9 -66.5t-22 -48t-32.5 -32t-35.5 -19.5t-37.5 -9.5t-31.5 -4t-23 -0.5q-26 0 -43 1t-46 10t-46.5 25.5t-31.5 50.5t-14 82q0 6 24 6t24 -6q0 -42 11 -68t33.5 -36.5t40 -13t46.5 -2.5q20 0 33 1t36.5 8t37.5 19.5t25 39t11 64.5q0 33 -11 57t-26 36t-39 19t-40.5 8 t-41.5 1h-43q-6 0 -6 24q0 25 6 25h43q22 0 34.5 1t35 7t35 17.5t23 35.5t10.5 58q0 36 -8.5 62.5t-20 39t-30 20t-30 8.5t-28.5 1q-26 0 -39 -1t-35 -7t-33.5 -18t-20.5 -37t-9 -61q0 -6 -24 -6t-24 6z" />
<glyph unicode="4" d="M346 6v221h-267v56q0 13 12 55t29 93.5t33.5 100.5t28.5 84l13 35q1 2 6 2q9 0 25 -6t16 -12q0 4 -28 -76.5t-56.5 -168.5t-28.5 -101v-9q0 -2 10 -3.5t33.5 -2t44.5 -0.5t61.5 0.5t67.5 0.5v219q0 7 24 7t24 -7v-219h73q7 0 7 -24t-7 -24h-73v-221q0 -6 -24 -6t-24 6z " />
<glyph unicode="5" d="M90 152q0 7 24 7q25 0 25 -7q0 -36 8 -58.5t25.5 -31.5t31.5 -11.5t38 -2.5h14q25 0 37.5 0.5t31.5 4.5t29 14t20.5 27t15 44.5t4.5 66.5q0 40 -9.5 68.5t-21.5 43t-34 22t-36.5 8.5t-39.5 1q-30 0 -54 -6.5t-33 -13.5l-8 -6h-57v328h318q7 0 7 -25q0 -24 -7 -24h-269 v-226h2q29 21 103 21h27t32 -3.5t37 -10t33.5 -21t30.5 -34t19.5 -51.5t8.5 -73q0 -57 -12.5 -97.5t-29 -60.5t-45 -31t-47 -12.5t-49.5 -1.5q-65 0 -93 11q-77 29 -77 141z" />
<glyph unicode="6" d="M270 0q-22 0 -34.5 1t-36 7t-38.5 17.5t-33.5 35.5t-29.5 57.5t-18.5 87t-7.5 120.5q0 66 7 118t18 85.5t28.5 57.5t32.5 36t38 18.5t36.5 7.5t35.5 1q31 0 50.5 -2.5t45 -12t43.5 -32.5t29 -60v-1q0 -5 -15.5 -10.5t-24.5 -5.5q-6 0 -7 4q-6 21 -15.5 34.5t-18.5 21 t-25.5 11t-27 4t-33.5 0.5q-19 0 -29 -0.5t-28 -5.5t-28 -14.5t-23.5 -28t-20.5 -45.5t-12.5 -69t-6.5 -95l1 -37q22 40 57 54.5t88 14.5q29 0 46.5 -1.5t48 -11t48 -28.5t31.5 -57.5t14 -92.5q0 -52 -14 -89.5t-31 -55t-47 -27.5t-47 -11t-46 -1zM268 48h29t27 2.5 t26.5 7.5t21.5 15t19 24t10.5 36.5t4.5 51.5q0 41 -8.5 69t-20 42t-32.5 21.5t-35.5 8.5t-40.5 1q-32 0 -51 -3.5t-40 -16.5t-32.5 -42.5t-14.5 -76.5q9 -50 23.5 -81t36.5 -42.5t36 -14t41 -2.5z" />
<glyph unicode="7" d="M140 18q0 1 28.5 57.5t67 135t77.5 159.5t66 143t27 73v15h-302q-6 0 -6 25q0 24 6 24h351v-68q0 -19 -42.5 -114t-93 -197.5t-93.5 -188.5l-43 -87q-4 -6 -24 6q-9 4 -14.5 8.5t-4.5 8.5z" />
<glyph unicode="8" d="M264 0q-54 0 -91.5 11t-57 25.5t-29.5 42t-11.5 46.5t-1.5 53q0 33 1.5 50.5t8 42.5t23 42t43.5 29q-22 11 -35.5 26.5t-18.5 38.5t-6 38t-1 47q0 34 4.5 56.5t20.5 48.5t54 39.5t97 13.5q29 0 53 -4t41.5 -8.5t31 -15.5t22 -18.5t14.5 -24t8.5 -24.5t4 -29t1.5 -28v-29 q0 -46 -12 -76.5t-49 -50.5q27 -11 43.5 -27.5t23 -41.5t8 -42.5t1.5 -51.5q0 -25 -0.5 -38t-4 -35.5t-10.5 -34.5t-21 -27.5t-34 -23.5t-50.5 -14t-70.5 -6zM264 601q-45 0 -72 -7.5t-38.5 -25.5t-14 -34t-2.5 -47v-32t2 -25.5t6.5 -24l13.5 -16.5t22.5 -14.5t34 -7 t48.5 -3.5q37 0 61.5 6t37.5 13.5t19.5 25t7.5 31t1 41.5q0 36 -2.5 52t-13.5 35t-38 26t-73 7zM264 48q41 0 68.5 6.5t42 15t21.5 27.5t8.5 33.5t1.5 42.5q0 73 -10 95q-29 49 -132 50q-34 0 -58.5 -4t-40 -13.5t-24.5 -19t-13 -27t-5 -30t-1 -35.5q0 -70 9 -91 q30 -48 133 -50z" />
<glyph unicode="9" d="M93 106v1q0 5 15.5 10t23.5 5q6 0 8 -3q6 -21 15.5 -34.5t18.5 -21t25 -11t27 -4t33 -0.5q19 0 29.5 0.5t28 5.5t28 14.5t23.5 28t20 45.5t12.5 68.5t6.5 95.5l-1 37q-22 -40 -57.5 -54.5t-86.5 -14.5q-30 0 -47.5 1.5t-47.5 11t-47.5 28t-31.5 57t-14 92.5q0 38 7 68.5 t17.5 50t28 33t31 20t36 10t34 4t31.5 0.5q17 0 26 -0.5t27.5 -3t30 -8t28.5 -17t27.5 -27.5t23 -41t19.5 -57t11.5 -76.5t4.5 -97.5q0 -91 -14 -155t-32 -95.5t-48.5 -49t-50.5 -20t-51 -2.5q-26 0 -40.5 1t-37.5 6.5t-37 16t-29 31.5t-24 51zM262 322q31 0 50 4t39.5 17 t31.5 42.5t15 76.5q-9 49 -23 79t-35 42t-35.5 15t-39.5 3q-67 0 -92 -12q-51 -26 -51 -125q0 -41 9 -69.5t20 -42.5t34 -21t36 -8t41 -1z" />
<glyph unicode=":" d="M236 80v61q0 6 25 6h8q16 0 16 -6v-61q0 -7 -24 -7q-25 0 -25 7zM236 358v61q0 7 25 7q24 0 24 -7v-61q0 -6 -24 -6h-8q-17 0 -17 6z" />
<glyph unicode=";" d="M242 358v61q0 7 25 7t25 -7v-61q0 -6 -25 -6h-8q-17 0 -17 6zM249 -67v67h-12q-6 0 -6 21v7q0 15 8 15h53v-110q0 -6 -22 -6q-21 0 -21 6z" />
<glyph unicode="&#x3c;" d="M339 137q-127 126 -190 189q4 3 51 50.5t92.5 92.5t46.5 45q2 2 3 2q5 0 18.5 -14t13.5 -19q0 -2 -1 -3q-29 -30 -83.5 -83.5t-71.5 -70.5l77.5 -77.5l77.5 -77.5q1 -1 1 -3q0 -5 -13.5 -19t-18.5 -14q-1 0 -3 2z" />
<glyph unicode="=" d="M418 219h-317q-6 0 -6 25q0 24 6 24h317q7 0 7 -24q0 -25 -7 -25zM418 379h-317q-6 0 -6 25q0 24 6 24h317q7 0 7 -24q0 -25 -7 -25z" />
<glyph unicode="&#x3e;" d="M374 326q-63 -63 -190 -189q-2 -2 -3 -2q-5 0 -18.5 14t-13.5 19q0 2 1 3q26 26 78 77.5t77 77.5q-17 17 -71.5 70.5t-83.5 83.5q-1 1 -1 3q0 5 13.5 19t18.5 14q1 0 3 -2q1 0 46.5 -45t92.5 -92.5t51 -50.5z" />
<glyph unicode="?" d="M222 6v60q0 7 25 7h8q16 -2 16 -7v-60q0 -6 -24 -6h-8q-17 0 -17 6zM222 153q-1 47 16.5 86t43 67t51 54.5t43.5 60t18 71.5q0 31 -8 52.5t-18 32.5t-29 16.5t-31.5 6.5t-35.5 1q-20 0 -32.5 -1t-31 -7.5t-29.5 -19t-19 -36.5t-8 -58q0 -7 -24 -7t-24 7q0 47 12.5 81 t28.5 50.5t41 26t40.5 11t36.5 1.5h10q27 0 43 -0.5t43 -8.5t42.5 -23.5t28 -47.5t12.5 -77q0 -46 -17.5 -84.5t-43 -65.5t-50.5 -53t-42.5 -59.5t-17.5 -71.5v-5q0 -7 -24 -7q-25 0 -25 7z" />
<glyph unicode="@" d="M477 0h-128h-48q-40 0 -67 2t-57.5 9t-50.5 20.5t-39.5 36.5t-30.5 56.5t-17.5 81t-6.5 109.5q0 67 7 118.5t18.5 86.5t31.5 59.5t39.5 38.5t50 21t55.5 9t62 2h47q67 0 104 -36t37 -99v-368q0 -6 -25 -6q-24 0 -24 6v43q-14 -18 -21 -25.5t-29 -15.5t-56 -8 q-82 0 -114 15q-64 29 -64 124q0 64 38 106t121 42h125q0 8 0.5 28.5t0.5 29t-0.5 25.5t-3 25t-6.5 20.5t-11 18.5t-17 13t-24 9.5t-31 2.5h-47q-34 0 -53.5 -1t-46 -6.5t-41 -16.5t-31 -31.5t-25 -51t-14 -75.5t-5.5 -104q0 -43 3.5 -77.5t8.5 -61t16 -46t20 -33t27 -22.5 t31.5 -14t38 -7.5t41.5 -3t47 -0.5h164q7 0 7 -25q0 -24 -7 -24zM435 335v44h-121q-115 0 -115 -100q0 -32 8.5 -51.5t29 -27.5t35.5 -9.5t46 -1.5q23 0 35 1t30.5 8.5t27.5 22t16.5 43.5t7.5 71z" />
<glyph unicode="A" d="M70 6v91q0 51 34 184t117 343q7 18 13 22t17 4h21q7 0 10.5 -1t8 -6.5t9.5 -18.5q149 -382 149 -527v-91q0 -6 -24 -6t-24 6v91q0 19 -4.5 47t-8.5 46l-5 19h-247q-18 -76 -18 -112v-91q0 -6 -24 -6t-24 6zM149 257h222q-18 73 -45 154t-45.5 129t-21.5 48 q-5 -11 -22.5 -57.5t-43.5 -126.5t-44 -147z" />
<glyph unicode="B" d="M91 0v650h208q39 0 67 -17t40.5 -41t19 -48t6.5 -41l1 -17q1 -11 0.5 -28.5t-11.5 -57t-34 -61.5q40 -17 61 -59.5t23 -77.5l1 -34q0 -7 -0.5 -18t-7.5 -40t-21 -51.5t-46 -40.5t-77 -18h-230zM140 350h167q36 0 55.5 31t21.5 63l1 31q-1 1 0.5 13t-3 31t-11.5 37t-25 31 t-43 13h-163v-250zM140 48h186q34 0 56.5 15.5t30.5 40t10 38t2 27.5q0 34 -7.5 60.5t-17.5 39.5t-20.5 21t-17.5 10l-8 2h-214v-254z" />
<glyph unicode="C" d="M416 185q0 6 24 6q25 0 25 -6q0 -53 -16 -91t-35.5 -55.5t-52.5 -27t-49.5 -10.5t-44.5 -1q-24 0 -39.5 1t-40 8t-41 19t-35 36t-30 57.5t-19 85.5t-7.5 118t7.5 117.5t18.5 85.5t30 58t35.5 36t42 19t43 8t44.5 1q16 0 26.5 -0.5t32.5 -4t37 -10.5t34.5 -21t31 -34 t20 -51t8.5 -71q0 -6 -25 -6q-24 0 -24 7q0 41 -10.5 69.5t-23 42.5t-34.5 21t-34 8t-32 1h-5q-69 0 -97 -15q-74 -40 -77 -240v-21q0 -58 6 -103.5t13.5 -74.5t22.5 -49t26 -29.5t32 -14.5t31 -5.5t32 -0.5q27 0 41 1t38 8t36.5 20t23 40.5t10.5 67.5z" />
<glyph unicode="D" d="M65 0v650h187q19 0 28 -0.5t29.5 -3t31.5 -8t29 -16.5t28.5 -26.5t23.5 -40.5t19.5 -56.5t11.5 -76t5 -97.5q0 -67 -7.5 -119.5t-18.5 -86t-29.5 -57.5t-33.5 -36t-38.5 -18t-36.5 -7t-34 -1h-195zM113 48h146q52 0 75 14q75 44 75 261q0 80 -10 136t-23 83t-36.5 41.5 t-37.5 16t-40 1.5h-6h-143v-553z" />
<glyph unicode="E" d="M449 49q6 0 6 -24q0 -25 -6 -25h-362v650h362q6 0 6 -25q0 -24 -6 -24h-313v-250h278q6 0 6 -25q0 -24 -6 -24h-278v-253h313z" />
<glyph unicode="F" d="M440 351q6 0 6 -24q0 -25 -6 -25h-314v-296q0 -6 -24 -6q-25 0 -25 6v644h363q6 0 6 -25q0 -24 -6 -24h-314v-250h314z" />
<glyph unicode="G" d="M282 351h183v-167q0 -38 -8 -68t-19 -49t-30 -32.5t-34 -20t-37.5 -10t-34.5 -4t-30 -0.5q-25 0 -39.5 1t-40.5 7t-41.5 17.5t-36 35.5t-31.5 58t-19 87t-8 121q0 67 8 119.5t19 85.5t31 57t36 35.5t41 17.5t39.5 7t38.5 1q30 0 49 -2t47 -11t48 -32t32 -60q1 -4 -8 -8 q-2 -1 -8 -3q-3 -1 -5 -2q-23 -8 -25 -1q-7 25 -21 40.5t-34.5 21.5t-33 7t-35.5 1h-6h-8q-20 0 -30.5 -0.5t-29.5 -5.5t-30 -15t-25 -30t-22 -48.5t-13.5 -73t-5.5 -101.5q0 -58 5.5 -103.5t13.5 -74.5t22.5 -49.5t25.5 -30.5t30.5 -15t30 -5.5t30.5 -0.5h8q61 0 85 11 q60 26 60 122v122h-134q-6 0 -6 24t6 24z" />
<glyph unicode="H" d="M65 6v637q0 7 24 7t24 -7v-292h292v292q0 7 25 7q24 0 24 -7v-637q0 -6 -24 -6q-25 0 -25 6v296h-292v-296q0 -6 -24 -6t-24 6z" />
<glyph unicode="I" d="M84 0q-6 0 -6 23q0 25 6 25h151v553h-151q-6 0 -6 24q0 25 6 25h351q6 0 6 -25q0 -24 -6 -24h-151v-553h151q6 0 6 -25q0 -23 -6 -23h-351z" />
<glyph unicode="J" d="M59 194q0 6 25 6q24 0 24 -6q0 -41 8.5 -69.5t19.5 -43.5t33 -22.5t37.5 -8.5t44.5 -1q26 0 38.5 1t33 4.5t31 12.5t22 24t16 40.5t4.5 60.5v409h-274q-6 0 -6 25q0 24 6 24h323v-458q0 -54 -13 -92t-30.5 -57t-46 -29.5t-47 -12t-46.5 -1.5q-69 0 -96 8 q-107 30 -107 186z" />
<glyph unicode="K" d="M72 6v637q0 7 24 7q25 0 25 -7v-340l309 349q1 1 3 1q4 0 19 -13t15 -18q0 -3 -195 -222q190 -380 190 -383q0 -5 -15 -13.5t-23 -8.5q-4 0 -5 3l-181 363l-117 -132v-223q0 -6 -25 -6q-24 0 -24 6z" />
<glyph unicode="L" d="M84 0v643q0 7 25 7q24 0 24 -7v-594h326q7 0 7 -24q0 -25 -7 -25h-375z" />
<glyph unicode="M" d="M37 6v644q4 -1 28 0.5t41.5 -2.5t21.5 -18l68 -155q45 -108 66 -176q17 53 50.5 136t59.5 139l25 56q7 20 22 20h68v-644q0 -6 -25 -6q-24 0 -24 6v572h-7q-88 -192 -141 -351h-56q-21 68 -56.5 156t-59.5 141l-25 54h-7v-572q0 -6 -24 -6q-25 0 -25 6z" />
<glyph unicode="N" d="M63 6v644h65q16 0 24 -19q64 -133 134 -306q28 -69 56.5 -133t43.5 -94l14 -29h8v574q0 7 24 7q25 0 25 -7v-643h-66q-15 0 -24 19q-57 119 -132 305q-27 66 -56 130t-44 96l-15 31h-8v-575q0 -6 -25 -6q-24 0 -24 6z" />
<glyph unicode="O" d="M263 0q-20 0 -30.5 0.5t-31 3.5t-32.5 8t-30 16.5t-29 27.5t-24 40.5t-20 56t-12 75.5t-5 97q0 48 3.5 88t11 70.5t15.5 55t20.5 41.5t23.5 29.5t27.5 20l27.5 12.5t29.5 6.5t28 2t27.5 0.5q20 0 32 -0.5t32 -3.5t32.5 -8.5t30 -17t28 -27.5t23 -40.5t19 -56.5t11 -75.5 t4.5 -96.5q0 -67 -7.5 -119.5t-18 -86.5t-29.5 -58t-34.5 -35.5t-41 -17.5t-40 -7t-41.5 -1zM263 48q58 0 81 10q82 38 82 267q0 80 -10.5 135.5t-23 82.5t-37.5 41.5t-40 16t-45 1.5h-8q-58 0 -81 -11q-83 -40 -83 -266q0 -80 11 -135.5t24.5 -82.5t38.5 -41.5t40 -16 t43 -1.5h8z" />
<glyph unicode="P" d="M80 6v644h243q9 0 21.5 -2t35.5 -11.5t41 -26.5t31.5 -51t13.5 -80q0 -48 -12.5 -83.5t-29 -53t-37 -28t-31.5 -12.5t-19 -2h-208v-294q0 -6 -24 -6q-25 0 -25 6zM129 349h206q5 0 11 1t20 8t24 19t18.5 39t8.5 63q0 34 -9 59t-20.5 36.5t-27.5 18t-23.5 7t-14.5 0.5 h-193v-251z" />
<glyph unicode="Q" d="M259 0q-20 0 -30.5 0.5t-31 3.5t-32.5 8t-30 16.5t-29 27t-24 40.5t-20 56.5t-12 75t-5 96.5q0 59 5 107t16.5 81t23 58t30 39.5t33 23.5t36.5 12.5t34.5 4.5t34.5 1q27 0 42 -1t40.5 -7t41 -18t34.5 -36t29.5 -58t18 -86.5t7.5 -120.5q0 -187 -52 -260l89 -89 q4 -6 -13 -23q-16 -17 -21 -12l-90 89q-39 -29 -125 -29zM259 47q61 0 86 20l-137 137q-5 6 13 22q17 17 21 13q87 -87 140 -141q40 63 40 225q0 58 -5.5 103.5t-12.5 74.5t-21.5 49.5t-25 30.5t-30 15t-30 5.5t-30.5 0.5h-8h-7q-20 0 -31 -0.5t-30 -5.5t-30.5 -15 t-25.5 -30.5t-22 -49.5t-13.5 -74.5t-5.5 -103.5t5.5 -102.5t13 -73.5t22 -49t25.5 -30t30.5 -15t29.5 -5.5t31 -0.5h8z" />
<glyph unicode="R" d="M72 6v644h243q9 0 21.5 -2t35 -11.5t40.5 -26t31.5 -50.5t13.5 -80q0 -31 -5 -56t-14 -42t-18 -29.5t-22 -20.5t-20.5 -12t-17.5 -7.5t-11 -3.5q-13 -4 -18 -5l131 -286v-2q0 -4 -15 -12.5t-24 -8.5q-5 0 -6 3l-138 303h-159v-295q0 -6 -24 -6t-24 6zM120 349h207 q42 0 65 45q17 32 17 85q0 34 -9.5 59t-21 36.5t-27.5 18.5t-23 7.5t-14 0.5h-194v-252z" />
<glyph unicode="S" d="M56 175q0 7 25 7q24 0 24 -7q0 -27 6 -48t13.5 -34t22.5 -22.5t25 -13.5t30 -6.5t28 -2.5h28h32.5t30 2.5t30.5 6.5t24.5 12.5t21.5 21t12.5 32.5t5.5 45q0 20 -4.5 37t-10.5 29t-19 23t-22 17.5t-27.5 14.5t-28.5 11.5t-32.5 10.5t-30.5 10q-28 9 -36.5 12.5t-33.5 13.5 t-34.5 17.5t-26.5 21.5t-24.5 28.5t-13.5 36t-6 46.5q0 44 14 74.5t31.5 46t48.5 23.5t49.5 9t50.5 1q24 0 38.5 -1t41 -5.5t44 -15.5t35.5 -29t27 -48.5t9 -71.5q0 -7 -24 -7t-24 7q0 35 -11 59.5t-24.5 36.5t-37.5 18.5t-37 7t-36 0.5q-75 0 -102 -14q-45 -23 -45 -90 q0 -31 11.5 -53.5t33 -36t43 -22.5t50.5 -18q10 -3 14 -4q88 -27 121 -48q78 -50 78 -149q0 -35 -7.5 -62t-18.5 -44.5t-30 -29.5t-34 -18.5t-39.5 -9.5t-38.5 -3.5t-38 -0.5q-31 0 -50.5 1.5t-51.5 10.5t-51 26t-34 52.5t-15 85.5z" />
<glyph unicode="T" d="M235 6v595h-187q-6 0 -6 24q0 25 6 25h422q7 0 7 -25q0 -24 -7 -24h-186v-595q0 -6 -24 -6q-25 0 -25 6z" />
<glyph unicode="U" d="M60 643q0 7 25 7q24 0 24 -7v-461q0 -33 6.5 -57.5t21 -39t26.5 -23t34 -11.5t32 -3.5t32 -0.5q29 0 40 0.5t37.5 7t39 19.5t23.5 40.5t11 67.5v461q0 7 25 7q24 0 24 -7v-461q0 -52 -15.5 -89.5t-35 -55t-51 -27t-48.5 -10.5t-43 -1h-6h-6q-18 0 -29 0.5t-34 3.5 t-38.5 9.5t-35 20t-31 32.5t-20 49t-8.5 68v461z" />
<glyph unicode="V" d="M222 18q-55 145 -108.5 312t-53.5 224v89q0 7 24 7t24 -7v-90q0 -50 50 -205.5t99 -285.5h4q45 112 97 276.5t52 216.5q0 5 0.5 44t0.5 44q0 7 24 7t24 -7v-89q0 -60 -56.5 -237t-107.5 -298q-8 -19 -22 -19h-28q-15 0 -23 18z" />
<glyph unicode="W" d="M109 21q-92 293 -92 451v171q0 7 24 7t24 -7v-171q0 -129 81 -398q20 55 40 125t30 112l11 42h64q35 -153 79 -279h3q79 262 79 398q0 11 0.5 86.5t0.5 84.5q0 7 24 7t24 -7v-171q0 -162 -93 -452q-7 -20 -26 -20h-21q-7 0 -10 0.5t-7.5 5.5t-7.5 15l-11 31 q-23 64 -65 230q-64 -223 -78 -261q-8 -21 -24 -21h-24q-6 0 -9.5 0.5t-7.5 5.5t-8 15z" />
<glyph unicode="X" d="M46 20q43 75 185 309q-180 298 -180 302t16 14.5t22 10.5q2 0 4 -2l166 -277l165 277q2 2 4 2q7 0 23 -10.5t16 -14.5t-25.5 -46t-73 -121t-80.5 -135q128 -216 185 -309v-2q0 -5 -15.5 -14.5t-23.5 -9.5q-3 0 -175 288l-172 -286q-1 -2 -5 -2q-6 0 -21.5 9t-15.5 14 q0 2 1 3z" />
<glyph unicode="Y" d="M237 6v319q-38 60 -84 130.5t-76 116.5t-36 56q-1 0 -1 2q0 4 15.5 15t22.5 11q3 0 183 -279q181 279 183 279q7 0 22.5 -11t15.5 -15l-1 -2l-195 -303v-319q0 -6 -25 -6q-24 0 -24 6z" />
<glyph unicode="Z" d="M65 0v69q0 13 11.5 37.5t40 67t51 75t67.5 96.5q154 218 154 239v17h-320q-6 0 -6 24q0 25 6 25h368v-70q0 -22 -47 -96.5t-108 -157.5q-58 -79 -113.5 -162.5t-55.5 -97.5v-18h348q8 0 8 -24t-8 -24h-396z" />
<glyph unicode="[" horiz-adv-x="515" d="M174 -63v842h202q7 0 7 -25q0 -24 -7 -24h-154v-745h154q7 0 7 -24q0 -23 -7 -24h-202z" />
<glyph unicode="\" d="M352 -1l-231 636v1q0 4 15.5 11t24.5 7q5 0 6 -3l231 -636v-2q0 -5 -15.5 -11t-24.5 -6q-4 0 -6 3z" />
<glyph unicode="]" horiz-adv-x="500" d="M133 -63q-7 0 -7 25q0 23 7 24h154v743h-154q-7 0 -7 25q0 24 7 25h202v-842h-202z" />
<glyph unicode="^" d="M71 575q28 29 189 190q167 -167 189 -190q5 -4 -12 -21t-23 -13q-1 2 -154 155q-153 -153 -154 -155q-6 -4 -23 13t-12 21z" />
<glyph unicode="_" d="M6 48h507q7 0 7 -24t-7 -24h-507q-6 0 -6 24t6 24z" />
<glyph unicode="`" d="M367 586q-10 4 -72 29t-112.5 46.5t-50.5 23.5q0 8 8 24.5t12 16.5h2q10 -4 71 -29t111.5 -46.5t50.5 -24.5q0 -9 -7.5 -24.5t-11.5 -15.5h-1z" />
<glyph unicode="a" d="M266 -1q-88 0 -123 15q-67 29 -67 124q0 63 42 105.5t129 42.5h144v79q0 40 -24 63t-71 23h-180q-7 0 -7 25q0 24 7 24h180q67 0 105.5 -36t38.5 -99v-359q0 -6 -25 -6q-24 0 -24 6v42q-38 -49 -125 -49zM256 47q21 0 33 1t30.5 4.5t29 13t21.5 25t16 41.5t5 61v45h-145 q-121 0 -121 -100q0 -26 7.5 -44t17 -27.5t30.5 -14t34.5 -5t41.5 -0.5z" />
<glyph unicode="b" d="M89 6v636q0 8 25 8q24 0 24 -8v-194q19 34 47.5 43.5t69.5 9.5h17q23 1 35 0.5t33.5 -5t33 -13.5t27 -27t23 -44.5t13.5 -67.5t6 -94q0 -71 -10.5 -120.5t-24.5 -74.5t-39.5 -38.5t-43.5 -15.5t-49 -2h-8q-23 0 -36 1t-33 5.5t-35 16.5t-26 32v-48q0 -6 -24 -6 q-25 0 -25 6zM269 47q54 0 71 9q51 25 55 169v25q0 70 -7.5 113t-24.5 61.5t-33 23t-45 4.5q-7 0 -23 0.5t-23 0.5t-20.5 -1.5t-19.5 -5t-16.5 -10.5t-15.5 -17t-12 -25.5t-10 -35.5t-5 -47t-2 -61q0 -59 7.5 -99.5t16.5 -60.5t28.5 -30.5t31.5 -11.5t37 -1h10z" />
<glyph unicode="c" d="M269 -1q-25 0 -36 0.5t-34.5 5t-35.5 13t-29 27t-25.5 45t-15 68t-6.5 95.5q0 52 6 92t14 66t24 44t28 27t34.5 13.5t35.5 5t39 0.5h5h28t29.5 -3t32 -8.5t28 -17t25.5 -27.5t15.5 -42t6.5 -59q0 -6 -25 -6q-24 0 -24 6q0 39 -8 62.5t-28 33t-34 11t-46 1.5h-10 q-21 0 -31 -0.5t-26.5 -4t-24.5 -11t-18.5 -21.5t-15 -35.5t-8 -54t-3.5 -74.5q0 -59 7.5 -99.5t16.5 -61t28.5 -31t32 -11.5t38.5 -1h9h8q23 0 34.5 0.5t29.5 6t26.5 16.5t15.5 33t7 54q0 7 25 7q24 0 24 -7q0 -33 -6.5 -58.5t-15 -42t-24.5 -28t-28 -17t-31.5 -8.5 t-29.5 -3.5t-28 -0.5h-6z" />
<glyph unicode="d" d="M251 -1h-28t-26.5 2t-27 6t-24 12.5t-23 21t-18 31.5t-15.5 43.5t-8.5 58.5t-3.5 76q0 70 10 119t23.5 74.5t37.5 39t41.5 16t46.5 2.5q4 0 20.5 0.5t23.5 0t22 -2t23.5 -5t20 -9t20.5 -15t16 -22.5v194q0 8 25 8q24 0 24 -8v-636q0 -6 -25 -6q-24 0 -24 6v48 q-11 -20 -26 -32t-36 -16.5t-33 -5.5t-36 -1zM252 47h9q25 0 37.5 1t31.5 11.5t28 30.5t16.5 60.5t7.5 99.5q0 56 -6 95t-14.5 59.5t-24.5 31.5t-29.5 13.5t-35.5 2.5q-7 0 -23.5 0.5t-23.5 0.5t-20.5 -1.5t-20 -5t-16.5 -10.5t-15 -17t-11.5 -25.5t-9.5 -35.5t-5 -47 t-2 -61q0 -43 3.5 -75.5t8 -54t15 -36t17.5 -22t22.5 -11t24 -4t27.5 -0.5h9z" />
<glyph unicode="e" d="M260 0h-27t-26 2t-28 6t-25 12.5t-24 20.5t-19 31t-16.5 43.5t-9.5 59t-4 75.5q0 60 6.5 104.5t21 71t28 42.5t37 23t39 8.5t41.5 1.5q35 0 56 -2.5t45 -11t36.5 -26t24.5 -48t17 -77t5 -111.5h-307q0 -43 5 -74.5t15 -50.5t19 -30t26 -15.5t26.5 -5.5t29.5 -1h6h159 q7 0 7 -24t-7 -24h-157zM131 274h258q0 29 -3 53t-6 42t-9.5 31.5t-11.5 22.5t-15.5 15t-16.5 9t-19.5 4.5t-20 1.5t-22.5 -0.5t-23 -0.5q-28 0 -45.5 -5.5t-33.5 -23.5t-23.5 -54.5t-8.5 -94.5z" />
<glyph unicode="f" d="M206 6v397h-130q-6 0 -6 25q0 24 6 24h130v8q0 39 7 70t17 50.5t27 33.5t30.5 21t33.5 10.5t30 4t27 0.5h100q7 0 7 -25q0 -24 -7 -24h-99q-22 0 -34.5 -1t-32 -8.5t-30 -21.5t-19 -42t-8.5 -68v-8h178q7 0 7 -24q0 -25 -7 -25h-178v-397q0 -6 -25 -6q-24 0 -24 6z" />
<glyph unicode="g" d="M109 -177q-7 0 -7 24q0 25 7 25h153q24 0 35.5 1t32 7.5t31 20.5t19 42t8.5 68v40q-11 -19 -25 -30.5t-34.5 -16t-31.5 -5t-36 -0.5q-26 0 -36 0.5t-34 4.5t-35 12.5t-28 27t-24.5 44.5t-14 67.5t-6.5 95.5q0 52 6 92.5t14 66.5t23.5 44.5t27 27.5t33 13.5t33.5 5t35 0.5 h6h28t25.5 -2.5t29 -7.5t22.5 -16t22 -27v45q0 7 24 7t24 -7v-482q0 -54 -13.5 -92t-30 -56.5t-45 -28t-43.5 -10.5t-41 -1h-154zM261 47q55 0 72 8q50 24 54 159q1 17 1 36q0 59 -7 99t-15 60t-27 30t-31.5 11.5t-38.5 1.5h-8h-9q-22 0 -33 -1t-28 -6t-25.5 -18t-18 -34.5 t-13 -57.5t-3.5 -85q0 -59 7 -99.5t16 -60.5t28 -30.5t31 -11.5t38 -1h10z" />
<glyph unicode="h" d="M83 6v637q0 7 24 7q25 0 25 -7v-195q15 25 39.5 37.5t42 14t49.5 1.5q25 0 37 -0.5t35 -5t34.5 -13.5t27.5 -27t23.5 -44.5t13.5 -67.5t6 -94v-243q0 -6 -25 -6q-24 0 -24 6v243q0 43 -3.5 76t-8 54.5t-15 36t-18 21.5t-24.5 10.5t-26 4t-31 0.5q-20 0 -27.5 -0.5 t-24.5 -2t-23.5 -6.5t-18.5 -13.5t-17 -22.5t-11.5 -34t-8.5 -48.5t-2 -64.5v-254q0 -6 -25 -6q-24 0 -24 6z" />
<glyph unicode="i" d="M131 0q-7 0 -7 24t7 24h184v404h-244q-7 0 -7 24t7 24h292v-452h78q6 0 6 -24t-6 -24h-310zM255 601q-7 0 -7 24q0 25 7 25h100q7 0 7 -25q0 -24 -7 -24h-100z" />
<glyph unicode="j" d="M66 -179q-7 0 -7 25t7 25h156q24 0 35 1t31.5 7.5t31 20.5t19 42t8.5 68v441h-232q-7 0 -7 24q0 25 7 25h280v-490q0 -54 -13.5 -92.5t-30.5 -56.5t-45 -28t-43 -11t-40 -1h-157zM286 601q-6 0 -6 24q0 25 6 25h101q7 0 7 -25q0 -24 -7 -24h-101z" />
<glyph unicode="k" d="M85 6v636q0 8 24 8t24 -8v-435q289 303 292 303q5 0 19 -13.5t14 -18.5q0 -1 -1 -2l-138 -144q170 -309 170 -314t-15.5 -14t-22.5 -9q-4 0 -5 2l-162 299q-6 -7 -64.5 -69t-86.5 -91v-130q0 -6 -24 -6t-24 6z" />
<glyph unicode="l" d="M358 0q-20 0 -31 0.5t-32 4.5t-33.5 11.5t-29 22.5t-25.5 36.5t-15.5 55.5t-6.5 77v392h-123q-6 0 -6 25t6 25h172v-460q0 -41 8.5 -69.5t19.5 -42.5t31.5 -21.5t32 -8t34.5 -0.5h9h89q7 0 7 -24t-7 -24h-100z" />
<glyph unicode="m" d="M33 6v487q0 7 24 7q25 0 25 -7v-35q27 42 81 42q72 0 100 -69q29 69 105 69q123 0 123 -181v-313q0 -6 -24 -6q-25 0 -25 6v310q0 136 -75 136q-37 0 -59 -30.5t-22 -120.5v-295q0 -6 -24 -6t-24 6v294q0 45 -7 75t-20 43.5t-20.5 18t-19.5 7.5q-7 5 -17 5 q-71 0 -72 -134v-309q0 -6 -25 -6q-24 0 -24 6z" />
<glyph unicode="n" d="M84 6v487q0 7 24 7t24 -7v-45q14 23 36.5 35.5t40 14.5t45.5 2h11q25 0 37.5 -0.5t34.5 -5t33.5 -13.5t27 -27t23 -44.5t13 -67t5.5 -93.5v-243q0 -6 -24 -6q-25 0 -25 6v243q0 58 -6.5 97.5t-15 60t-26 31t-31 12.5t-39.5 2q-63 0 -84 -10q-51 -25 -55 -151 q-1 -15 -1 -33v-252q0 -6 -24 -6t-24 6z" />
<glyph unicode="o" d="M262 -1h-26.5t-26.5 2t-28 6t-24.5 12.5t-24 20.5t-19 31t-16.5 44t-9 59.5t-4 76.5q0 52 6 92.5t14 66.5t23 44.5t27 27.5t33 13.5t32.5 5t34.5 0.5h7h7q20 0 30.5 -0.5t29 -3t29 -9.5t25 -18t22.5 -30t16.5 -44.5t12 -62.5t3.5 -83q0 -42 -3.5 -76t-8.5 -59t-15.5 -44 t-18 -31t-23 -20.5t-24 -12.5t-27.5 -6t-26.5 -2h-27.5zM262 48q54 0 71 8q50 24 55 161v33q0 59 -6.5 98.5t-15 60t-27 30.5t-31.5 11.5t-40 1.5h-7q-57 0 -75 -10q-52 -28 -54 -180v-12q0 -59 7.5 -99t16.5 -60t28 -30.5t31 -11.5t37 -1h10z" />
<glyph unicode="p" d="M85 -193v687q0 7 24 7t24 -7v-46q12 20 26.5 32t36 16t31 4.5t36.5 0.5q68 0 95 -13q81 -39 81 -238q0 -42 -3.5 -76t-8.5 -59t-15.5 -44t-18 -31t-23 -20.5t-24 -12.5t-27.5 -6t-26.5 -2h-27.5h-29t-27 3t-29.5 8t-24 16t-22.5 27v-246q0 -7 -24 -7t-24 7zM264 48 q54 0 72 8q50 25 55 163v31q0 43 -3.5 75t-8 53.5t-14.5 36t-17.5 22t-23.5 11t-25 4t-29 0.5h-7h-8q-21 0 -32 -1t-28 -6t-26 -18t-18.5 -34.5t-13.5 -57.5t-4 -85q0 -59 7.5 -99t16 -60t28 -30.5t32 -11.5t37.5 -1h10z" />
<glyph unicode="q" d="M84 251q0 52 5.5 92.5t13.5 66.5t23 44.5t26.5 27.5t32.5 13.5t32.5 5t33.5 0.5h8h28t26 -2.5t30 -7.5t23.5 -16t22.5 -27v45q0 7 25 7q24 0 24 -7v-687q0 -7 -24 -7q-25 0 -25 7v247q-11 -20 -26 -32t-36 -16.5t-32 -5t-37 -0.5h-25t-24 1.5t-25 4.5t-22 8.5t-22 15 t-18 22.5t-16 32t-11 43t-8.5 55.5t-2.5 69.5zM132 251q0 -59 7 -99t15 -60.5t26.5 -30.5t31 -11.5t37.5 -1.5h10h10q25 0 37.5 1t31.5 11.5t28 30.5t16 60.5t7 99.5t-7 98.5t-16 59.5t-28 30.5t-31.5 11.5t-37.5 1h-10h-9q-27 0 -39.5 -1.5t-30.5 -11t-26.5 -30t-15 -60 t-6.5 -98.5z" />
<glyph unicode="r" d="M118 6v487q0 7 25 7t25 -7v-45q19 33 47.5 42.5t71.5 9.5q73 0 97 -7q87 -24 87 -153q0 -6 -24 -6q-25 0 -25 6q0 41 -8 65t-28 33.5t-35 11.5t-48 2h-25q-28 0 -45.5 -6t-33.5 -25t-23.5 -59.5t-7.5 -104.5v-251q0 -6 -25 -6t-25 6z" />
<glyph unicode="s" d="M84 136q0 7 24 7t24 -7q0 -26 8 -43.5t17 -26t29 -13t32 -5t38 -0.5q25 0 37 0.5t30.5 2.5t27.5 7.5t19 15t14 25t4 36.5t-9 37t-17.5 24.5t-34 18.5t-35 13t-45.5 12q-29 8 -45 13t-40.5 16.5t-37.5 24.5t-23 34.5t-10 48.5q0 35 12 60t27.5 37t43 18.5t43.5 7.5t45 1 q19 0 30.5 -0.5t34.5 -4t38 -12t31.5 -22.5t24.5 -38.5t8 -56.5q0 -7 -25 -7t-25 7q0 29 -8.5 47t-27 26t-36 10t-47.5 2q-27 0 -41.5 -1t-32 -5t-26 -11.5t-14.5 -22t-6 -35.5q0 -28 20.5 -47t38.5 -25.5t61 -17.5q9 -3 14 -4q80 -22 110 -43q53 -38 53 -106 q0 -25 -4.5 -45t-15 -34t-20 -24t-26.5 -16t-28 -9.5t-31 -5t-28.5 -1.5h-26.5h-27.5t-30.5 2.5t-34 7t-29.5 14.5t-27 24.5t-17 37t-7.5 51.5z" />
<glyph unicode="t" d="M352 0q-27 0 -43 1.5t-44 11t-44 28t-29 57t-13 92.5v209h-133q-6 0 -6 24t6 24h133v195q0 8 25 8q24 0 24 -8v-195h180q7 0 7 -24t-7 -24h-180v-209q0 -50 10.5 -81.5t32.5 -43.5t37.5 -14.5t43.5 -2.5h101q6 0 6 -24t-6 -24h-101z" />
<glyph unicode="u" d="M259 0h-29.5t-27.5 2t-28 6.5t-24 12.5t-22.5 20.5t-18 31.5t-15 43.5t-8 58.5t-3.5 75v243q0 7 24 7t24 -7v-242q0 -59 6 -98t14.5 -60t26.5 -31.5t32 -12.5t40 -2h11q29 0 43 1t34.5 11t29.5 29.5t16.5 57.5t7.5 95v252q0 7 24 7t24 -7v-487q0 -6 -24 -6t-24 6v44 q-15 -24 -41 -36t-42 -13t-50 -1z" />
<glyph unicode="v" d="M264 0h-24q-9 0 -13.5 2.5t-10.5 15.5q-26 51 -84 199.5t-58 202.5v73q0 7 25 7q24 0 24 -7v-74q0 -46 54.5 -185.5t73.5 -175.5l12 21q79 157 118 276q15 45 15 65v73q0 7 25 7q24 0 24 -7v-74q0 -50 -65.5 -202t-92.5 -199q-8 -13 -11.5 -15.5t-11.5 -2.5z" />
<glyph unicode="w" d="M164 0h-23q-5 0 -7.5 0.5t-5.5 2t-5 5t-5 10.5q-16 36 -50.5 179.5t-34.5 226.5v69q0 7 25 7q24 0 24 -7v-69q0 -69 26 -183.5t46 -174.5q20 44 39 98.5t29 86.5l9 32h59q35 -120 76 -217q18 48 45.5 168.5t27.5 190.5v68q0 7 25 7q24 0 24 -7v-69q0 -81 -34.5 -226.5 t-50.5 -179.5q-6 -12 -10.5 -15t-13.5 -3h-21q-11 0 -15 4t-15 28q-21 41 -65 184h-5q-66 -216 -94 -216z" />
<glyph unicode="x" d="M92 2q-19 14 -16 19q0 1 25.5 39t64 96t63.5 97q-140 216 -149 225q-4 7 16 20q20 15 24 8l22 -34q23 -34 58 -86t59 -90q24 36 59.5 89.5t58 87t22.5 34.5q4 5 24 -9q19 -13 16 -20q-12 -12 -150 -225q25 -38 64 -97t64 -96.5t25 -38.5q5 -7 -16 -19q-20 -14 -23 -9 q-5 5 -144 217q-25 -38 -60.5 -92t-59 -89t-23.5 -36q-4 -5 -24 9z" />
<glyph unicode="y" d="M112 -177q-6 0 -6 24t6 24h156q23 0 35 1t32.5 8t31 20.5t19 41.5t8.5 68v41q-15 -25 -40 -37t-41.5 -13.5t-49.5 -1.5h-29.5t-27.5 2.5t-28 6.5t-24 12.5t-22.5 20.5t-17.5 31t-14.5 44t-8 59t-3.5 76v242q0 7 24 7t24 -7v-242q0 -34 2 -61.5t4.5 -47.5t9.5 -35.5 t11.5 -25.5t15.5 -16.5t16.5 -10t20.5 -5t21.5 -1.5h24.5q30 0 46 2t35 12t28.5 30t16 57t6.5 92v252q0 7 24 7q25 0 25 -7v-483q0 -39 -7 -70t-17 -50t-27 -33t-30 -20t-34 -9.5t-31 -4t-28 -0.5h-157z" />
<glyph unicode="z" d="M75 0v51q0 30 151 203q13 15 37 44.5t40.5 49.5t34.5 42t27 36t9 18v7h-291q-7 0 -7 25q0 24 7 24h350v-52q0 -27 -147 -198q-151 -180 -151 -194v-8h317q6 0 6 -24t-6 -24h-377z" />
<glyph unicode="{" d="M437 -64q-82 0 -119 18q-96 48 -96 243q0 23 -0.5 33t-2.5 26.5t-6.5 23.5t-12.5 16.5t-21 13t-31.5 6.5t-44.5 3h-32q-7 0 -7 24t7 24h32q26 0 44.5 3t31.5 6.5t21 13t12.5 16.5t6.5 23.5t2.5 26.5t0.5 33q0 54 8 96.5t18.5 69.5t30 46t35 28.5t41 14.5t39.5 5.5t39 0.5 h4q7 0 7 -24q0 -25 -7 -25h-8q-28 0 -43.5 -1.5t-40.5 -12t-38.5 -31.5t-24.5 -63.5t-11 -103.5q0 -33 -1 -49t-6.5 -37.5t-18 -35t-34.5 -24.5q41 -20 50.5 -51.5t9.5 -94.5q0 -61 11 -103.5t24.5 -63.5t38.5 -31.5t40 -12t44 -1.5h8q7 0 7 -25q0 -24 -7 -24z" />
<glyph unicode="|" d="M235 6v637q0 7 25 7q24 0 24 -7v-637q0 -6 -24 -6q-25 0 -25 6z" />
<glyph unicode="}" d="M82 -64q-7 0 -7 24q0 25 7 25q64 0 89 11q77 34 77 201q0 33 1 49t6.5 37.5t18.5 35.5t35 24q-41 20 -51 51.5t-10 94.5q0 31 -2.5 57.5t-8 46.5t-10.5 36t-15 27t-17 19t-20 13t-20 8t-22 4t-21 1h-21h-9q-7 0 -7 25q0 24 7 24h31t31 -2.5t33 -6.5t30 -12.5t29.5 -21.5 t24 -33t20 -45.5t11.5 -61t5 -78.5q0 -23 0.5 -33t2.5 -26.5t6.5 -23.5t12.5 -16.5t21 -13t31.5 -6.5t44.5 -3h33q6 0 6 -24t-6 -24h-33q-26 0 -44.5 -3t-31.5 -6.5t-21 -13t-12.5 -16.5t-6.5 -23.5t-2.5 -26.5t-0.5 -33q0 -43 -5 -78.5t-11.5 -61t-20 -45.5t-24 -33 t-29.5 -21.5t-30 -12.5t-33 -6.5t-31 -2.5h-31z" />
<glyph unicode="~" d="M107 280q-1 -2 -4 -2q-6 0 -21 11.5t-15 16.5q0 -2 4 3.5t13.5 16t22.5 20.5t35 17.5t47 7.5q36 0 78 -21t65 -21q15 0 29 4.5t23.5 11t17 13t11.5 10.5l4 5q6 0 21 -11.5t15 -17.5q0 1 -12 -13t-42 -32.5t-66 -18.5q-35 0 -77 21t-66 21q-21 0 -41.5 -10.5t-29 -18.5 t-12.5 -13z" />
<glyph unicode="&#xa0;" />
<glyph unicode="&#xa1;" d="M284 494v-488q0 -6 -24 -6q-25 0 -25 6v488q0 7 25 7q24 0 24 -7zM284 643v-61q0 -6 -25 -6h-8q-16 0 -16 6v61q0 7 24 7q25 0 25 -7z" />
<glyph unicode="&#xa2;" d="M249 -44v44q-28 1 -46.5 4t-42.5 17.5t-37.5 40t-23.5 74t-10 116.5q0 67 9.5 114t23 72.5t36.5 39.5t42 17.5t49 4.5v44q0 7 24 7t24 -7v-44q28 -1 48.5 -6t44 -19.5t36.5 -47.5t13 -83q0 -6 -15 -6q-16 0 -20 4q0 25 -5.5 43t-12 27t-19.5 15t-20.5 7t-22.5 2t-19 1 q0 13 -8 14v-403q8 1 8 14q20 1 33 4t29 11.5t25.5 29t11.5 52.5q3 4 20 4q15 0 15 -6q0 -50 -13 -83.5t-36.5 -48t-44.5 -20t-48 -5.5v-44q0 -6 -24 -6t-24 6zM249 49v402q-29 -1 -45.5 -6t-34 -23.5t-25 -60.5t-7.5 -110q0 -58 7 -98t15.5 -60t26.5 -30.5t29 -12t34 -1.5z " />
<glyph unicode="&#xa4;" d="M86 7q0 27 1 42t6.5 37.5t19 38.5t35.5 27q-22 11 -35.5 26.5t-19 37.5t-6.5 37t-1 43q0 27 1 42t6.5 38t19.5 39.5t36 27.5q-22 10 -36 25.5t-19.5 38.5t-6.5 38t-1 43q0 7 24 7q23 0 24 -7q0 -24 0.5 -35t4 -28t11 -25t21 -16.5t35.5 -12t53 -3.5t53 3t35.5 12t21 16.5 t11 25t4 28.5t0.5 35q0 7 24 7t25 -7q0 -28 -1 -43t-6.5 -37.5t-18.5 -38t-35 -25.5q22 -11 35.5 -26.5t18.5 -39t6 -38t1 -44.5q0 -28 -1 -43t-6 -37t-18.5 -37.5t-34.5 -25.5q36 -20 48 -53.5t12 -92.5q0 -7 -25 -7q-24 0 -24 7q0 24 -0.5 35t-4 28.5t-11 25t-21 16.5 t-35.5 12t-53 3q-37 0 -61.5 -7t-37 -15t-19 -27.5t-7 -31.5t-0.5 -39q0 -7 -24 -7t-24 7zM259 177q46 0 72.5 7t37.5 26t13 34.5t2 51.5q0 24 -0.5 36t-4 29t-11.5 25t-21.5 16.5t-35 12t-52.5 3.5q-27 0 -47 -4t-33 -8t-22 -15.5t-13.5 -18t-6.5 -23.5t-2 -24.5v-28.5 q0 -35 2 -50.5t13 -35t37.5 -26.5t71.5 -7z" />
<glyph unicode="&#xa5;" d="M237 6v135h-136q-6 0 -6 24q0 25 6 25h136v107h-136q-6 0 -6 24t6 24h124l-184 283q-3 6 18 19q20 13 24 7l179 -277l179 277q3 6 23 -7q21 -13 18 -19l-183 -283h119q7 0 7 -24t-7 -24h-132v-107h132q7 0 7 -25q0 -24 -7 -24h-132v-135q0 -6 -24 -6q-25 0 -25 6z" />
<glyph unicode="&#xa6;" d="M284 356q0 -6 -25 -6q-24 0 -24 6v287q0 7 24 7q25 0 25 -7v-287zM284 6q0 -6 -25 -6q-24 0 -24 6v287q0 7 24 7q25 0 25 -7v-287z" />
<glyph unicode="&#xa7;" d="M85 137q0 7 24 7t24 -7q0 -25 7 -42.5t16.5 -26t27.5 -13.5t30.5 -5.5t36.5 -0.5q33 0 46 0.5t35 4.5t31 13t16.5 26t7.5 43q0 68 -105 96l-46 12q-33 10 -53 18t-44 23.5t-35.5 39t-11.5 55.5q0 47 20 77q-20 28 -20 68q0 36 12 60.5t27 37t42 19t44 7.5t45 1 q19 0 30.5 -0.5t34.5 -4t37.5 -12t30.5 -22.5t24 -38.5t8 -56.5q0 -7 -25 -7q-24 0 -24 7q0 55 -29 70t-90 15q-32 0 -50 -2t-36 -9t-25.5 -23t-7.5 -42q0 -61 106 -87q6 -2 39 -10.5t52 -16.5t45.5 -24.5t39.5 -43.5t13 -63q0 -47 -16 -76q16 -30 16 -69q0 -38 -12.5 -65 t-28.5 -40t-43 -20.5t-44 -8.5t-44 -1h-7q-25 0 -40.5 1t-43.5 8t-44.5 20t-29.5 41t-13 67zM380 240q6 18 6 37q0 40 -26 63.5t-59.5 31.5t-78.5 21.5t-71 31.5q-10 -14 -10 -47q0 -34 27.5 -54.5t62.5 -28t80 -21.5t69 -34z" />
<glyph unicode="&#xa8;" horiz-adv-x="515" d="M117 601q-6 0 -6 25q0 24 6 24h105q7 0 7 -24q0 -25 -7 -25h-105zM292 601q-6 0 -6 25q0 24 6 24h106q6 0 6 -24q0 -25 -6 -25h-106z" />
<glyph unicode="&#xab;" d="M227 326q20 20 92 91.5t98 96.5q2 2 3 2q5 0 18.5 -13.5t13.5 -19.5q0 -2 -1 -3l-155 -154l155 -155q1 -1 1 -3q0 -6 -13.5 -19.5t-18.5 -13.5q-2 0 -193 191zM69 326q167 167 189 188q2 2 4 2q5 0 18.5 -14t13.5 -19q0 -2 -1 -3l-155 -154l56.5 -56.5l44.5 -44.5 t30 -29.5t19.5 -20t5.5 -7.5q0 -5 -13.5 -19t-18.5 -14q-1 0 -44.5 42.5t-91 90t-57.5 58.5z" />
<glyph unicode="&#xad;" d="M101 302q-6 0 -6 24t6 24h317q7 0 7 -24t-7 -24h-317z" />
<glyph unicode="&#xb0;" d="M260 469q-41 0 -67.5 28.5t-26.5 66.5q0 37 26.5 65.5t67.5 28.5q40 0 67.5 -28.5t27.5 -65.5q0 -38 -27 -66.5t-68 -28.5zM260 514q22 0 36 15t14 35t-14 34.5t-36 14.5q-21 0 -35.5 -15t-14.5 -34q0 -20 14 -35t36 -15z" />
<glyph unicode="&#xb1;" d="M237 200v126h-135q-6 0 -6 25v8q0 16 6 16h135v127q0 6 24 6h8q17 0 17 -6v-127h132q7 0 7 -24v-8q0 -17 -7 -17h-132v-126q0 -7 -25 -7h-8q-16 2 -16 7zM102 106q-7 0 -7 24t7 24h317q6 0 6 -24t-6 -24h-317z" />
<glyph unicode="&#xb4;" d="M135 631q222 95 233 95q4 0 11.5 -16t7.5 -24q0 -5 -2 -6q-6 -2 -64.5 -26.5t-111.5 -46t-57 -21.5t-12 16t-8 24q0 4 3 5z" />
<glyph unicode="&#xb5;" d="M84 -164v657q0 7 25 7q24 0 24 -7v-251q0 -46 4 -80t13 -55t18 -33.5t25.5 -17.5t28.5 -6.5t34 -1.5q60 0 78 8q48 22 55 140q2 25 2 55v242q0 7 24 7t24 -7v-242q0 -72 -10.5 -121.5t-24 -74.5t-40 -38t-44.5 -15t-52 -2q-27 0 -38.5 0.5t-33 5t-36.5 16t-27 30.5v-216 q-1 -7 -24 -7q-25 0 -25 7z" />
<glyph unicode="&#xb7;" d="M290 302h-61q-7 0 -7 25q0 24 7 24h61q6 0 6 -24v-8q0 -17 -6 -17z" />
<glyph unicode="&#xb8;" horiz-adv-x="515" d="M251 -162q-7 0 -7 19q0 20 7 20q51 0 76.5 5t30 11t4.5 18t-3.5 16t-23 6.5t-67.5 2.5v64h49v-24q44 0 68.5 -13t24.5 -52q0 -21 -3.5 -31.5t-18.5 -21.5t-48 -15.5t-89 -4.5z" />
<glyph unicode="&#xbb;" d="M294 326q-191 -191 -193 -191q-5 0 -18.5 13.5t-13.5 19.5q0 2 1 3l155 155l-155 154q-1 1 -1 3q0 6 13.5 19.5t18.5 13.5q1 0 3 -2q26 -25 98 -96.5t92 -91.5zM452 326q-10 -11 -57.5 -58.5t-91 -90t-44.5 -42.5q-5 0 -18.5 14t-13.5 19q0 2 14 16t58 57.5t84 84.5 l-155 154q-1 1 -1 3q0 5 13.5 19t18.5 14q2 0 4 -2q22 -21 189 -188z" />
<glyph unicode="&#xbf;" d="M290 643v-60q0 -6 -25 -6h-8q-16 0 -16 6v60q0 7 24 7h8q17 -2 17 -7zM290 497v-7q0 -45 -18 -83.5t-43 -65.5t-50.5 -53.5t-43 -59.5t-17.5 -70q0 -31 7.5 -53t17.5 -32.5t29.5 -16t31.5 -6.5t36 -1q25 0 40.5 2.5t36.5 13t31.5 37.5t10.5 69q0 6 25 6q24 0 24 -6 q0 -48 -13 -82t-29.5 -51t-42.5 -26t-41 -10.5t-36 -1.5h-7q-27 0 -42.5 1t-43 9t-43 23.5t-28 47.5t-12.5 77q0 46 17.5 84t42.5 65t50 53t43 59.5t18 71.5v6q0 6 24 6q25 0 25 -6z" />
<glyph unicode="&#xc0;" d="M366 736q-11 5 -71.5 29.5t-111.5 45.5t-51 24q0 8 8 24.5t12 16.5h2q9 -4 70.5 -29t112 -46.5t50.5 -24.5q0 -8 -8 -24t-12 -16h-1zM70 6v91q0 51 34 184t117 343q7 18 13 22t17 4h21q7 0 10.5 -1t8 -6.5t9.5 -18.5q149 -382 149 -527v-91q0 -6 -24 -6t-24 6v91 q0 19 -4.5 47t-8.5 46l-5 19h-247q-18 -76 -18 -112v-91q0 -6 -24 -6t-24 6zM149 257h222q-18 73 -45 154t-45.5 129t-21.5 48q-5 -11 -22.5 -57.5t-43.5 -126.5t-44 -147z" />
<glyph unicode="&#xc1;" d="M135 781q2 1 64.5 27t113.5 47t54 21q5 0 12.5 -16.5t7.5 -24.5q0 -4 -2 -5q-6 -3 -65.5 -27.5t-112 -45.5t-55.5 -21q-4 0 -12 16t-8 24q0 4 3 5zM70 6v91q0 51 34 184t117 343q7 18 13 22t17 4h21q7 0 10.5 -1t8 -6.5t9.5 -18.5q149 -382 149 -527v-91q0 -6 -24 -6 t-24 6v91q0 19 -4.5 47t-8.5 46l-5 19h-247q-18 -76 -18 -112v-91q0 -6 -24 -6t-24 6zM149 257h222q-18 73 -45 154t-45.5 129t-21.5 48q-5 -11 -22.5 -57.5t-43.5 -126.5t-44 -147z" />
<glyph unicode="&#xc2;" d="M101 717q-1 -1 -2 -1q-5 0 -15.5 15.5t-10.5 23.5q0 2 2 4l132 82q1 1 2 1q5 0 15.5 -16.5t10.5 -21.5q0 -3 -1 -3zM418 717q-6 4 -40.5 26t-64 40.5t-29.5 20.5q0 6 10.5 22t15.5 16q2 0 3 -1l132 -82q2 -2 2 -4q0 -7 -11 -23t-16 -16q-1 0 -2 1zM70 6v91q0 51 34 184 t117 343q7 18 13 22t17 4h21q7 0 10.5 -1t8 -6.5t9.5 -18.5q149 -382 149 -527v-91q0 -6 -24 -6t-24 6v91q0 19 -4.5 47t-8.5 46l-5 19h-247q-18 -76 -18 -112v-91q0 -6 -24 -6t-24 6zM149 257h222q-18 73 -45 154t-45.5 129t-21.5 48q-5 -11 -22.5 -57.5t-43.5 -126.5 t-44 -147z" />
<glyph unicode="&#xc3;" d="M70 6v91q0 51 34 184t117 343q7 18 13 22t17 4h21q7 0 10.5 -1t8 -6.5t9.5 -18.5q149 -382 149 -527v-91q0 -6 -24 -6t-24 6v91q0 19 -4.5 47t-8.5 46l-5 19h-247q-18 -76 -18 -112v-91q0 -6 -24 -6t-24 6zM149 257h222q-18 73 -45 154t-45.5 129t-21.5 48 q-5 -11 -22.5 -57.5t-43.5 -126.5t-44 -147zM107 725q-2 -2 -4 -2q-6 0 -21 11.5t-15 17.5q0 -1 2.5 2l7.5 9t11.5 13t17 14t22.5 13t28 10t33 4q36 0 78 -21t65 -21q15 0 29.5 4.5t24 11t16.5 13t11 10.5l4 5q6 0 21 -12t15 -18q0 3 -4 -2t-14 -15.5t-23 -20.5t-34.5 -17.5 t-44.5 -7.5q-35 0 -77 21t-66 21q-21 0 -41 -10.5t-30 -19.5t-12 -13z" />
<glyph unicode="&#xc4;" d="M295 750q-7 0 -7 25t7 25h105q6 0 6 -25t-6 -25h-105zM120 750q-7 0 -7 25t7 25h105q6 0 6 -25t-6 -25h-105zM70 6v91q0 51 34 184t117 343q7 18 13 22t17 4h21q7 0 10.5 -1t8 -6.5t9.5 -18.5q149 -382 149 -527v-91q0 -6 -24 -6t-24 6v91q0 19 -4.5 47t-8.5 46l-5 19 h-247q-18 -76 -18 -112v-91q0 -6 -24 -6t-24 6zM149 257h222q-18 73 -45 154t-45.5 129t-21.5 48q-5 -11 -22.5 -57.5t-43.5 -126.5t-44 -147z" />
<glyph unicode="&#xc5;" d="M70 6v91q0 58 39 200t112 330q-25 11 -40.5 35t-15.5 51q0 37 27 66t68 29q40 0 67 -28.5t27 -66.5q0 -27 -15 -50.5t-40 -34.5q83 -213 116.5 -344.5t33.5 -186.5v-91q0 -6 -24 -6t-24 6v91q0 19 -4.5 47t-8.5 46l-5 19h-247q-18 -76 -18 -112v-91q0 -6 -24 -6t-24 6z M259 664q22 0 36.5 15t14.5 34q0 20 -14.5 35t-36.5 15q-21 0 -35 -15t-14 -35q0 -19 14 -34t35 -15zM149 257h222q-18 73 -45 154t-45.5 129t-21.5 48q-5 -11 -22.5 -57.5t-43.5 -126.5t-44 -147z" />
<glyph unicode="&#xc6;" d="M497 49q6 0 6 -24q0 -25 -6 -25h-125q-24 0 -24 7v59q0 31 -6.5 86t-10.5 57h-241q-1 0 -5 -20t-8.5 -48t-4.5 -44v-91q0 -6 -17 -6q-31 0 -31 6q0 3 -0.5 34.5t-0.5 56.5q-1 47 28.5 168.5t103.5 313.5q12 32 22 55q7 15 29 15h291q6 0 6 -24q0 -25 -6 -25h-237 q33 -84 84 -250h120q6 0 6 -24q0 -25 -6 -25h-106q34 -119 39 -194v-58h100zM103 258h216q-16 66 -41.5 146.5t-42 125.5t-21.5 58h-4q-5 -10 -22 -57t-42 -126t-43 -147z" />
<glyph unicode="&#xc7;" d="M224 -161q-7 0 -7 20t7 20q51 0 76 4.5t30 10.5t5 18t-3.5 16t-23.5 7t-67 3v63q-30 1 -52.5 7.5t-48.5 26.5t-43 53.5t-28.5 94t-11.5 142.5q0 66 7.5 117.5t18.5 85.5t30 58t35.5 36t42 19t43 8t44.5 1q16 0 26.5 -0.5t32.5 -4t37 -10.5t34.5 -21t31 -34t20 -51 t8.5 -71q0 -6 -25 -6q-24 0 -24 7q0 41 -10.5 69.5t-23 42.5t-34.5 21t-34 8t-32 1h-5q-69 0 -97 -15q-74 -40 -77 -240v-21q0 -58 6 -103.5t13.5 -74.5t22.5 -49t26 -29.5t32 -14.5t31 -5.5t32 -0.5q27 0 41 1t38 8t36.5 20t23 40.5t10.5 67.5q0 6 24 6q25 0 25 -6 q0 -48 -12.5 -83.5t-30.5 -54t-44.5 -30t-46 -14t-44.5 -3.5v-23q30 0 47.5 -3.5t31.5 -18.5t14 -42q0 -28 -7 -41t-42.5 -23t-108.5 -10z" />
<glyph unicode="&#xc8;" d="M445 49q6 0 6 -24q0 -25 -6 -25h-355v650h355q6 0 6 -25q0 -24 -6 -24h-305v-250h270q6 0 6 -25q0 -24 -6 -24h-270v-253h305zM366 736q-11 5 -71.5 29.5t-111.5 45.5t-51 24q0 8 8 24.5t12 16.5h2q9 -4 70.5 -29t112 -46.5t50.5 -24.5q0 -8 -8 -24t-12 -16h-1z" />
<glyph unicode="&#xc9;" d="M445 49q6 0 6 -24q0 -25 -6 -25h-355v650h355q6 0 6 -25q0 -24 -6 -24h-305v-250h270q6 0 6 -25q0 -24 -6 -24h-270v-253h305zM135 781q2 1 64.5 27t113.5 47t54 21q5 0 12.5 -16.5t7.5 -24.5q0 -4 -2 -5q-6 -3 -65.5 -27.5t-112 -45.5t-55.5 -21q-4 0 -12 16t-8 24 q0 4 3 5z" />
<glyph unicode="&#xca;" d="M445 49q6 0 6 -24q0 -25 -6 -25h-355v650h355q6 0 6 -25q0 -24 -6 -24h-305v-250h270q6 0 6 -25q0 -24 -6 -24h-270v-253h305zM101 717q-1 -1 -2 -1q-5 0 -15.5 15.5t-10.5 23.5q0 2 2 4l132 82q1 1 2 1q5 0 15.5 -16.5t10.5 -21.5q0 -3 -1 -3zM418 717q-6 4 -40.5 26 t-64 40.5t-29.5 20.5q0 6 10.5 22t15.5 16q2 0 3 -1l132 -82q2 -2 2 -4q0 -7 -11 -23t-16 -16q-1 0 -2 1z" />
<glyph unicode="&#xcb;" d="M445 49q6 0 6 -24q0 -25 -6 -25h-355v650h355q6 0 6 -25q0 -24 -6 -24h-305v-250h270q6 0 6 -25q0 -24 -6 -24h-270v-253h305zM295 750q-7 0 -7 25t7 25h105q6 0 6 -25t-6 -25h-105zM120 750q-7 0 -7 25t7 25h105q6 0 6 -25t-6 -25h-105z" />
<glyph unicode="&#xcc;" d="M88 0q-6 0 -6 23q0 25 6 25h151v553h-151q-6 0 -6 24q0 25 6 25h351q6 0 6 -25q0 -24 -6 -24h-151v-553h151q6 0 6 -25q0 -23 -6 -23h-351zM366 736q-11 5 -71.5 29.5t-111.5 45.5t-51 24q0 8 8 24.5t12 16.5h2q9 -4 70.5 -29t112 -46.5t50.5 -24.5q0 -8 -8 -24t-12 -16 h-1z" />
<glyph unicode="&#xcd;" d="M88 0q-6 0 -6 23q0 25 6 25h151v553h-151q-6 0 -6 24q0 25 6 25h351q6 0 6 -25q0 -24 -6 -24h-151v-553h151q6 0 6 -25q0 -23 -6 -23h-351zM135 781q2 1 64.5 27t113.5 47t54 21q5 0 12.5 -16.5t7.5 -24.5q0 -4 -2 -5q-6 -3 -65.5 -27.5t-112 -45.5t-55.5 -21 q-4 0 -12 16t-8 24q0 4 3 5z" />
<glyph unicode="&#xce;" d="M88 0q-6 0 -6 23q0 25 6 25h151v553h-151q-6 0 -6 24q0 25 6 25h351q6 0 6 -25q0 -24 -6 -24h-151v-553h151q6 0 6 -25q0 -23 -6 -23h-351zM101 717q-1 -1 -2 -1q-5 0 -15.5 15.5t-10.5 23.5q0 2 2 4l132 82q1 1 2 1q5 0 15.5 -16.5t10.5 -21.5q0 -3 -1 -3zM418 717 q-6 4 -40.5 26t-64 40.5t-29.5 20.5q0 6 10.5 22t15.5 16q2 0 3 -1l132 -82q2 -2 2 -4q0 -7 -11 -23t-16 -16q-1 0 -2 1z" />
<glyph unicode="&#xcf;" d="M88 0q-6 0 -6 23q0 25 6 25h151v553h-151q-6 0 -6 24q0 25 6 25h351q6 0 6 -25q0 -24 -6 -24h-151v-553h151q6 0 6 -25q0 -23 -6 -23h-351zM295 750q-7 0 -7 25t7 25h105q6 0 6 -25t-6 -25h-105zM120 750q-7 0 -7 25t7 25h105q6 0 6 -25t-6 -25h-105z" />
<glyph unicode="&#xd0;" d="M78 0v300h-56q-6 0 -6 25q0 24 6 24h56v301h188q24 0 37 -0.5t38 -6.5t40 -17.5t34.5 -35.5t30 -58t18.5 -87t8 -121q0 -67 -7.5 -119.5t-18.5 -86t-29.5 -57.5t-33.5 -35.5t-38.5 -17.5t-36 -7t-34.5 -1h-196zM128 48h144q52 0 74 11q78 42 78 263q0 58 -5.5 103.5 t-12.5 74.5t-21 49.5t-24.5 30t-28.5 15t-28 6t-28 0.5h-6h-142v-252h191q7 0 7 -24q0 -25 -7 -25h-191v-252z" />
<glyph unicode="&#xd1;" d="M64 6v644h64q8 0 13.5 -4t8 -8t5 -10.5t3.5 -7.5q57 -118 129 -295q28 -69 56.5 -133t42.5 -94l15 -29h8v574q0 7 24 7t24 -7v-643h-65q-4 0 -8 1t-6.5 3.5t-5 4.5t-4 5.5t-2.5 5.5l-2.5 5t-1.5 4q-4 7 -66 151t-120 277.5t-56 123.5h-8v-575q0 -6 -24 -6t-24 6zM99 731 q-2 -2 -3 -2q-7 0 -22 11.5t-15 18.5q0 -2 4 3.5t14 15.5t23.5 20t35 17.5t45.5 7.5q37 0 79 -21t64 -21q26 0 46 11t30 22l10 11q6 0 20.5 -11.5t14.5 -17.5q-5 -7 -15 -17.5t-41 -28.5t-63 -18q-35 0 -77 21t-66 21q-50 0 -84 -43z" />
<glyph unicode="&#xd2;" d="M262 0q-20 0 -30.5 0.5t-31 3.5t-32.5 8t-30 16.5t-29 27.5t-24 40.5t-20 56t-12 75.5t-5 97t5 97t12 75.5t19.5 56t23.5 40.5t29 27.5t30.5 16.5t33 8t31 3.5t30.5 0.5q21 0 32 -0.5t31.5 -3.5t33 -8.5t30 -16.5t28 -27t23 -41t19 -56.5t11 -75t4.5 -96.5 q0 -67 -7.5 -119.5t-18 -86.5t-29.5 -58t-34.5 -35.5t-41 -17.5t-40 -7t-41.5 -1zM262 47h8q29 0 44 1.5t40 16t37.5 42t23 83t10.5 135.5q0 76 -9 130t-22 82t-34.5 43t-38 18t-42.5 3q-6 0 -21 0.5t-23.5 0.5t-24 -2t-25 -6.5t-22.5 -13.5t-21.5 -23t-18 -35t-14.5 -48.5 t-8.5 -65t-3.5 -83.5q0 -80 11 -135.5t24.5 -83t39 -42t40.5 -16t43 -1.5h7zM366 736q-10 4 -72 29t-112.5 46.5t-50.5 23.5q0 8 8 24.5t12 16.5h2q10 -4 71 -29t111.5 -46.5t50.5 -24.5q0 -9 -7.5 -24.5t-11.5 -15.5h-1z" />
<glyph unicode="&#xd3;" d="M262 0q-20 0 -30.5 0.5t-31 3.5t-32.5 8t-30 16.5t-29 27.5t-24 40.5t-20 56t-12 75.5t-5 97t5 97t12 75.5t19.5 56t23.5 40.5t29 27.5t30.5 16.5t33 8t31 3.5t30.5 0.5q21 0 32 -0.5t31.5 -3.5t33 -8.5t30 -16.5t28 -27t23 -41t19 -56.5t11 -75t4.5 -96.5 q0 -67 -7.5 -119.5t-18 -86.5t-29.5 -58t-34.5 -35.5t-41 -17.5t-40 -7t-41.5 -1zM262 47h8q29 0 44 1.5t40 16t37.5 42t23 83t10.5 135.5q0 76 -9 130t-22 82t-34.5 43t-38 18t-42.5 3q-6 0 -21 0.5t-23.5 0.5t-24 -2t-25 -6.5t-22.5 -13.5t-21.5 -23t-18 -35t-14.5 -48.5 t-8.5 -65t-3.5 -83.5q0 -80 11 -135.5t24.5 -83t39 -42t40.5 -16t43 -1.5h7zM134 781q222 95 233 95q4 0 11.5 -16t7.5 -24q0 -5 -2 -6q-6 -2 -64.5 -26.5t-111.5 -46t-57 -21.5t-12 16t-8 24q0 4 3 5z" />
<glyph unicode="&#xd4;" d="M262 0q-20 0 -30.5 0.5t-31 3.5t-32.5 8t-30 16.5t-29 27.5t-24 40.5t-20 56t-12 75.5t-5 97t5 97t12 75.5t19.5 56t23.5 40.5t29 27.5t30.5 16.5t33 8t31 3.5t30.5 0.5q21 0 32 -0.5t31.5 -3.5t33 -8.5t30 -16.5t28 -27t23 -41t19 -56.5t11 -75t4.5 -96.5 q0 -67 -7.5 -119.5t-18 -86.5t-29.5 -58t-34.5 -35.5t-41 -17.5t-40 -7t-41.5 -1zM262 47h8q29 0 44 1.5t40 16t37.5 42t23 83t10.5 135.5q0 76 -9 130t-22 82t-34.5 43t-38 18t-42.5 3q-6 0 -21 0.5t-23.5 0.5t-24 -2t-25 -6.5t-22.5 -13.5t-21.5 -23t-18 -35t-14.5 -48.5 t-8.5 -65t-3.5 -83.5q0 -80 11 -135.5t24.5 -83t39 -42t40.5 -16t43 -1.5h7zM101 717q-1 -1 -2 -1q-5 0 -15.5 15.5t-10.5 23.5q0 2 2 4l132 82q1 1 2 1q5 0 15.5 -16.5t10.5 -21.5q0 -3 -1 -3zM418 717q-6 4 -40.5 26t-64 40.5t-29.5 20.5q0 6 10.5 22t15.5 16q2 0 3 -1 l132 -82q2 -2 2 -4q0 -7 -11 -23t-16 -16q-1 0 -2 1z" />
<glyph unicode="&#xd5;" d="M263 0q-20 0 -30.5 0.5t-31 3.5t-32.5 8t-30 16.5t-29 27.5t-24 40.5t-20 56t-12 75.5t-5 97q0 48 3.5 88t11 70.5t15.5 55t20.5 41.5t23.5 29.5t27.5 20l27.5 12.5t29.5 6.5t28 2t27.5 0.5q20 0 32 -0.5t32 -3.5t32.5 -8.5t30 -17t28 -27.5t23 -40.5t19 -56.5t11 -75.5 t4.5 -96.5q0 -67 -7.5 -119.5t-18 -86.5t-29.5 -58t-34.5 -35.5t-41 -17.5t-40 -7t-41.5 -1zM263 48q58 0 81 10q82 38 82 267q0 80 -10.5 135.5t-23 82.5t-37.5 41.5t-40 16t-45 1.5h-8q-58 0 -81 -11q-83 -40 -83 -266q0 -80 11 -135.5t24.5 -82.5t38.5 -41.5t40 -16 t43 -1.5h8zM107 725q-2 -2 -4 -2q-6 0 -21 11.5t-15 17.5q0 -1 2.5 2l7.5 9t11.5 13t17 14t22.5 13t28 10t33 4q36 0 78 -21t65 -21q15 0 29.5 4.5t24 11t16.5 13t11 10.5l4 5q6 0 21 -12t15 -18q0 3 -4 -2t-14 -15.5t-23 -20.5t-34.5 -17.5t-44.5 -7.5q-35 0 -77 21t-66 21 q-21 0 -41 -10.5t-30 -19.5t-12 -13z" />
<glyph unicode="&#xd6;" d="M263 -1q-20 0 -31 0.5t-31 3.5t-32.5 8.5t-30.5 16.5t-29.5 27t-24 41t-19.5 56.5t-12 75.5t-5 97q0 48 3.5 88t11 70.5t15.5 55t20.5 41.5t23.5 29.5t27.5 20l27.5 12.5t29.5 6.5t28 2t27.5 0.5q20 0 32 -0.5t32 -3.5t32.5 -8.5t30 -17t28 -27.5t23 -40.5t19 -56.5 t11 -75.5t4.5 -96.5q0 -67 -7.5 -120t-18 -86.5t-29.5 -57.5t-34 -36t-40.5 -18t-40.5 -7t-41 -1zM262 48q59 0 81 10q81 43 82 267q0 80 -10 135.5t-23 82.5t-37.5 41.5t-40 16t-44.5 1.5h-9q-58 0 -81 -11q-83 -40 -83 -266q0 -80 11 -135.5t24.5 -82.5t38.5 -41.5t40 -16 t43 -1.5h8zM119 751q-7 0 -7 25q0 24 7 24h105q7 0 7 -24q0 -25 -7 -25h-105zM294 751q-7 0 -7 25q0 24 7 24h105q7 0 7 -24q0 -25 -7 -25h-105z" />
<glyph unicode="&#xd7;" d="M137 168q-6 -5 -22 13q-17 17 -13 22q5 2 123 123l-51 51t-52.5 53t-19.5 19q-4 4 13 22q17 17 22 13q1 -2 123 -124q20 21 52 52.5t51.5 51t19.5 20.5q5 4 22 -13t13 -22q-1 0 -20.5 -19.5l-51.5 -51.5l-52 -52q122 -122 124 -123q4 -5 -13 -22t-22 -13q0 1 -19.5 20.5 t-51.5 51t-52 52.5q-122 -122 -123 -124z" />
<glyph unicode="&#xd8;" d="M123 15l7 19q-82 68 -82 291q0 48 3.5 88t11 70.5t15.5 55t20.5 41.5t23.5 29.5t27.5 20l27.5 12.5t29.5 6.5t28 2t27.5 0.5q59 0 87 -11l4 11q3 8 26 -2q10 -3 16 -7t5 -7l-7 -18q81 -65 81 -292q0 -67 -7.5 -120t-18 -86.5t-29.5 -57.5t-34 -36t-40.5 -18t-40.5 -7 t-41 -1q-60 0 -89 12l-5 -13q-2 -6 -25 2q-6 2 -9 3.5t-6.5 3.5t-5 4t-0.5 4zM150 90l182 503q-21 9 -71 9q-58 0 -81 -11q-83 -40 -83 -266q0 -175 53 -235zM190 57q20 -9 72 -9q59 0 81 10q81 43 82 267q0 179 -52 236z" />
<glyph unicode="&#xd9;" d="M60 643q0 7 25 7q24 0 24 -7v-461q0 -33 6.5 -57.5t21 -39t26.5 -23t34 -11.5t32 -3.5t32 -0.5q29 0 40 0.5t37.5 7t39 19.5t23.5 40.5t11 67.5v461q0 7 25 7q24 0 24 -7v-461q0 -52 -15.5 -89.5t-35 -55t-51 -27t-48.5 -10.5t-43 -1h-6h-6q-18 0 -29 0.5t-34 3.5 t-38.5 9.5t-35 20t-31 32.5t-20 49t-8.5 68v461zM367 730q-10 4 -72 29t-112.5 46.5t-50.5 23.5q0 8 8 24.5t12 16.5h2q10 -4 71 -29t111.5 -46.5t50.5 -24.5q0 -9 -7.5 -24.5t-11.5 -15.5h-1z" />
<glyph unicode="&#xda;" d="M60 643q0 7 25 7q24 0 24 -7v-461q0 -33 6.5 -57.5t21 -39t26.5 -23t34 -11.5t32 -3.5t32 -0.5q29 0 40 0.5t37.5 7t39 19.5t23.5 40.5t11 67.5v461q0 7 25 7q24 0 24 -7v-461q0 -52 -15.5 -89.5t-35 -55t-51 -27t-48.5 -10.5t-43 -1h-6h-6q-18 0 -29 0.5t-34 3.5 t-38.5 9.5t-35 20t-31 32.5t-20 49t-8.5 68v461zM135 775q222 95 233 95q4 0 11.5 -16t7.5 -24q0 -5 -2 -6q-6 -2 -64.5 -26.5t-111.5 -46t-57 -21.5t-12 16t-8 24q0 4 3 5z" />
<glyph unicode="&#xdb;" d="M101 717q-1 -1 -2 -1q-5 0 -15.5 15.5t-10.5 23.5q0 2 2 4l132 82q1 1 2 1q5 0 15.5 -16.5t10.5 -21.5q0 -3 -1 -3zM418 717q-6 4 -40.5 26t-64 40.5t-29.5 20.5q0 6 10.5 22t15.5 16q2 0 3 -1l132 -82q2 -2 2 -4q0 -7 -11 -23t-16 -16q-1 0 -2 1zM60 643q0 7 25 7 q24 0 24 -7v-461q0 -38 10 -64.5t23.5 -40t35.5 -21t37 -8.5t38 -1q66 0 89 7q70 23 70 128v461q0 7 24 7q25 0 25 -7v-461q0 -50 -14 -86.5t-33 -54.5t-47.5 -28t-47.5 -12t-43 -2q-1 0 -15.5 -0.5t-25 0t-29.5 2t-33.5 6.5t-32.5 13t-31 22t-25 32.5t-18 46.5t-6 61v461z " />
<glyph unicode="&#xdc;" d="M60 643q0 7 25 7q24 0 24 -7v-461q0 -33 6.5 -57.5t21 -39t26.5 -23t34 -11.5t32 -3.5t32 -0.5q29 0 40 0.5t37.5 7t39 19.5t23.5 40.5t11 67.5v461q0 7 25 7q24 0 24 -7v-461q0 -52 -15.5 -89.5t-35 -55t-51 -27t-48.5 -10.5t-43 -1h-6h-6q-18 0 -29 0.5t-34 3.5 t-38.5 9.5t-35 20t-31 32.5t-20 49t-8.5 68v461zM119 745q-6 0 -6 25q0 24 6 24h105q7 0 7 -24q0 -25 -7 -25h-105zM294 745q-6 0 -6 25q0 24 6 24h106q6 0 6 -24q0 -25 -6 -25h-106z" />
<glyph unicode="&#xdd;" d="M237 6v319q-38 60 -84 130.5t-76 116.5t-36 56q-1 0 -1 2q0 4 15.5 15t22.5 11q3 0 183 -279q181 279 183 279q7 0 22.5 -11t15.5 -15l-1 -2l-195 -303v-319q0 -6 -25 -6q-24 0 -24 6zM135 781q2 1 64.5 27t113.5 47t54 21q5 0 12.5 -16.5t7.5 -24.5q0 -4 -2 -5 q-6 -3 -65.5 -27.5t-112 -45.5t-55.5 -21q-4 0 -12 16t-8 24q0 4 3 5z" />
<glyph unicode="&#xdf;" d="M88 -193v674q0 30 1 46.5t10 43.5t25.5 41.5t50.5 26t82 11.5q49 0 82.5 -11t50 -24.5t25 -41t9.5 -43.5t1 -49q0 -23 -0.5 -34t-3.5 -29.5t-9 -30t-18 -23.5t-29 -21q27 -10 43 -26.5t22.5 -42t8 -43t1.5 -51.5q0 -36 -1.5 -54.5t-11 -46.5t-27.5 -42.5t-54 -25.5 t-89 -11h-55q-6 0 -6 24t6 24h55q28 0 49.5 3.5t36 8t24 14.5t14.5 17.5t7 24t2.5 26.5t0.5 31v8q0 70 -11 91q-22 45 -123 45h-55q-6 0 -6 25q0 24 6 24h55q30 0 50.5 3t33.5 11t20.5 15t10.5 24t3.5 27.5t0.5 34.5v31.5t-2 25t-6.5 23.5t-12.5 16.5t-21 14t-32 6.5t-45 3 t-45 -3.5t-32 -7.5t-21.5 -14.5t-12.5 -17.5t-6.5 -23.5t-2.5 -24.5v-29v-674q0 -6 -24 -6q-25 0 -25 6z" />
<glyph unicode="&#xe0;" d="M266 -1q-88 0 -123 15q-67 29 -67 124q0 63 41.5 105.5t128.5 42.5h145q0 10 0.5 38.5t0 40t-6 32.5t-15.5 29.5t-30.5 16.5t-50.5 8h-173q-7 0 -7 24q0 25 7 25h180q71 0 107 -38t36 -106v-350q0 -6 -24 -6t-24 6v42q-38 -49 -125 -49zM255 47q21 0 31.5 0.5t28.5 4 t28 10.5t22 21t17 34t8 50.5t1 69.5h-140q-126 0 -126 -100q0 -26 7.5 -44t17 -27t30 -13.5t34 -5t41.5 -0.5zM366 586q-11 5 -71.5 29.5t-111.5 45.5t-51 24q0 8 8 24.5t12 16.5h2q9 -4 70.5 -29t112 -46.5t50.5 -24.5q0 -8 -8 -24t-12 -16h-1z" />
<glyph unicode="&#xe1;" d="M266 -1q-88 0 -123 15q-67 29 -67 124q0 63 41.5 105.5t128.5 42.5h145q0 10 0.5 38.5t0 40t-6 32.5t-15.5 29.5t-30.5 16.5t-50.5 8h-173q-7 0 -7 24q0 25 7 25h180q71 0 107 -38t36 -106v-350q0 -6 -24 -6t-24 6v42q-38 -49 -125 -49zM255 47q21 0 31.5 0.5t28.5 4 t28 10.5t22 21t17 34t8 50.5t1 69.5h-140q-126 0 -126 -100q0 -26 7.5 -44t17 -27t30 -13.5t34 -5t41.5 -0.5zM135 631q2 1 64.5 27t113.5 47t54 21q5 0 12.5 -16.5t7.5 -24.5q0 -4 -2 -5q-6 -3 -65.5 -27.5t-112 -45.5t-55.5 -21q-4 0 -12 16t-8 24q0 4 3 5z" />
<glyph unicode="&#xe2;" d="M266 -1q-88 0 -123 15q-67 29 -67 124q0 63 42 105.5t129 42.5h144v79q0 40 -24 63t-71 23h-180q-7 0 -7 25q0 24 7 24h180q67 0 105.5 -36t38.5 -99v-359q0 -6 -25 -6q-24 0 -24 6v42q-38 -49 -125 -49zM256 47q21 0 33 1t30.5 4.5t29 13t21.5 25t16 41.5t5 61v45h-145 q-121 0 -121 -100q0 -26 7.5 -44t17 -27.5t30.5 -14t34.5 -5t41.5 -0.5zM103 583q-4 -3 -19 16q-12 21 -8 24q1 1 89 60t95 63q7 -4 94.5 -63t88.5 -60q6 -3 -8 -24q-14 -19 -19 -16q-1 1 -32 21.5t-70 46.5l-54 36q-13 -9 -54 -36t-71.5 -47t-31.5 -21z" />
<glyph unicode="&#xe3;" d="M266 -1q-88 0 -123 15q-67 29 -67 124q0 63 42 105.5t129 42.5h144v79q0 40 -24 63t-71 23h-180q-7 0 -7 25q0 24 7 24h180q67 0 105.5 -36t38.5 -99v-359q0 -6 -25 -6q-24 0 -24 6v42q-38 -49 -125 -49zM256 47q21 0 33 1t30.5 4.5t29 13t21.5 25t16 41.5t5 61v45h-145 q-121 0 -121 -100q0 -26 7.5 -44t17 -27.5t30.5 -14t34.5 -5t41.5 -0.5zM107 581q-2 -2 -4 -2q-6 0 -21 11.5t-15 17.5q0 -1 2.5 2l7.5 9t11.5 13t17 14t22.5 13t28 10t33 4q36 0 78 -21t65 -21q15 0 29.5 4.5t24 11t16.5 13t11 10.5l4 5q6 0 21 -12t15 -18q0 3 -4 -2 t-14 -15.5t-23 -20.5t-34.5 -17.5t-44.5 -7.5q-35 0 -77 21t-66 21q-21 0 -41 -10.5t-30 -19.5t-12 -13z" />
<glyph unicode="&#xe4;" d="M266 -1q-88 0 -123 15q-67 29 -67 124q0 63 42 105.5t129 42.5h144v79q0 40 -24 63t-71 23h-180q-7 0 -7 25q0 24 7 24h180q67 0 105.5 -36t38.5 -99v-359q0 -6 -25 -6q-24 0 -24 6v42q-38 -49 -125 -49zM256 47q21 0 33 1t30.5 4.5t29 13t21.5 25t16 41.5t5 61v45h-145 q-121 0 -121 -100q0 -26 7.5 -44t17 -27.5t30.5 -14t34.5 -5t41.5 -0.5zM120 601q-7 0 -7 25q0 24 7 24h105q6 0 6 -24q0 -25 -6 -25h-105zM295 601q-7 0 -7 25q0 24 7 24h105q7 0 7 -24q0 -25 -7 -25h-105z" />
<glyph unicode="&#xe5;" d="M274 -1q-88 0 -123 15q-67 29 -67 124q0 63 42 105.5t129 42.5h144v79q0 40 -24 63t-71 23h-180q-7 0 -7 25q0 24 7 24h180q67 0 105.5 -36t38.5 -99v-359q0 -6 -25 -6q-24 0 -24 6v42q-38 -49 -125 -49zM264 47q21 0 33 1t30.5 4.5t29 13t21.5 25t16 41.5t5 61v45h-145 q-121 0 -121 -100q0 -26 7.5 -44t17 -27.5t30.5 -14t34.5 -5t41.5 -0.5zM268 560q-41 0 -68 28.5t-27 66.5t27 66.5t68 28.5q40 0 67 -28.5t27 -66.5t-26.5 -66.5t-67.5 -28.5zM267 606q22 0 36 14.5t14 34.5t-14 34.5t-36 14.5q-21 0 -35 -15t-14 -34q0 -20 13.5 -34.5 t35.5 -14.5z" />
<glyph unicode="&#xe6;" d="M144 0q-65 0 -88 12q-49 25 -49 127q0 31 3.5 51t14 42t35.5 33.5t64 12.5q31 2 93 2h20q-1 26 -0.5 53.5t1 50t-8.5 39.5t-29 23q-7 2 -75.5 5t-81.5 0q-7 0 -7 25q0 24 7 24h127q41 0 62 -14t35 -44q12 27 28.5 40t30.5 15.5t41 2.5q32 0 47.5 -1.5t35.5 -9.5 t28.5 -24.5t17.5 -46.5t11.5 -75.5t2.5 -112.5h-223q0 -78 9.5 -119t23 -51.5t38.5 -10.5h133l1 -5q2 -4 3.5 -11.5t1.5 -11.5q0 -21 -6 -21h-113q-26 0 -38 1t-29 6.5t-28.5 19t-21.5 35.5q-21 -42 -45 -52t-72 -10zM145 48q17 0 24 0.5t20.5 4t20 12.5t14 24.5t10.5 41 t3 60.5v39h-95q-30 0 -48.5 -6t-26.5 -20.5t-10 -27.5t-2 -38q0 -33 4.5 -52t18 -27t26 -9.5t41.5 -1.5zM287 280h174q0 79 -9 117t-22 46t-41 8h-14q-23 1 -33 -0.5t-23 -9.5t-18.5 -26t-9.5 -51t-4 -84z" />
<glyph unicode="&#xe7;" d="M413 164q25 0 25 -7q0 -42 -10.5 -73t-24.5 -46.5t-36.5 -25t-39 -11.5t-38.5 -2v-22q29 0 47 -3.5t32 -18.5t14 -42q0 -20 -3.5 -30.5t-18 -22t-48 -16.5t-89.5 -5q-6 0 -6 20t6 20q51 0 76.5 4.5t30 10.5t4.5 18t-3.5 16t-23 7t-66.5 3v62q-27 1 -45.5 5t-40.5 19 t-35.5 40.5t-23 73.5t-9.5 114q0 70 10.5 118.5t25 73.5t40.5 38t45.5 15.5t52.5 2.5h17h21.5t22 -1.5t24.5 -4t22.5 -8t22.5 -13.5t18.5 -20t15.5 -27t9 -36t4 -46q0 -7 -25 -7t-25 7q0 38 -8 61.5t-26.5 33t-33.5 11.5t-44 2q-62 0 -81 -8q-49 -21 -57 -131q-2 -28 -2 -62 t2.5 -62t6 -48t10.5 -36t12.5 -26t16.5 -17t17.5 -10.5t20 -5t20.5 -1.5t22 0.5t22 0.5q51 0 76.5 21t25.5 90q0 7 25 7z" />
<glyph unicode="&#xe8;" d="M254 0h-26t-26 2t-27.5 6t-24.5 12.5t-24 20.5t-19 31t-16 43.5t-9 59t-4 75.5q0 60 6.5 104.5t20.5 71t27.5 42.5t36.5 23t38.5 8.5t41.5 1.5q35 0 55.5 -2t44.5 -11t36.5 -26.5t24.5 -48t16.5 -77t4.5 -111.5h-303q1 -51 8.5 -86.5t17 -53t28 -26.5t30.5 -10t35 -1h6 h157q6 0 6 -24t-6 -24h-156zM128 274h253q-1 50 -7 84.5t-14.5 53t-24.5 27.5t-29 11t-36 2q-4 0 -22 0.5t-22.5 0t-19.5 -2t-19 -5t-15.5 -9.5t-15 -15t-11 -22.5t-10 -31t-5 -41t-2.5 -52.5zM366 586q-10 4 -72 29t-112.5 46.5t-50.5 23.5q0 8 8 24.5t12 16.5h2 q10 -4 71 -29t111.5 -46.5t50.5 -24.5q0 -9 -7.5 -24.5t-11.5 -15.5h-1z" />
<glyph unicode="&#xe9;" d="M254 0h-26t-26 2t-27.5 6t-24.5 12.5t-24 20.5t-19 31t-16 43.5t-9 59t-4 75.5q0 60 6.5 104.5t20.5 71t27.5 42.5t36.5 23t38.5 8.5t41.5 1.5q35 0 55.5 -2t44.5 -11t36.5 -26.5t24.5 -48t16.5 -77t4.5 -111.5h-303q1 -51 8.5 -86.5t17 -53t28 -26.5t30.5 -10t35 -1h6 h157q6 0 6 -24t-6 -24h-156zM128 274h253q-1 50 -7 84.5t-14.5 53t-24.5 27.5t-29 11t-36 2q-4 0 -22 0.5t-22.5 0t-19.5 -2t-19 -5t-15.5 -9.5t-15 -15t-11 -22.5t-10 -31t-5 -41t-2.5 -52.5zM134 631q222 95 233 95q4 0 11.5 -16t7.5 -24q0 -5 -2 -6q-6 -2 -64.5 -26.5 t-111.5 -46t-57 -21.5t-12 16t-8 24q0 4 3 5z" />
<glyph unicode="&#xea;" d="M254 0h-26t-26 2t-27.5 6t-24.5 12.5t-24 20.5t-19 31t-16 43.5t-9 59t-4 75.5q0 60 6.5 104.5t20.5 71t27.5 42.5t36.5 23t38.5 8.5t41.5 1.5q35 0 55.5 -2t44.5 -11t36.5 -26.5t24.5 -48t16.5 -77t4.5 -111.5h-303q1 -51 8.5 -86.5t17 -53t28 -26.5t30.5 -10t35 -1h6 h157q6 0 6 -24t-6 -24h-156zM128 274h253q-1 50 -7 84.5t-14.5 53t-24.5 27.5t-29 11t-36 2q-4 0 -22 0.5t-22.5 0t-19.5 -2t-19 -5t-15.5 -9.5t-15 -15t-11 -22.5t-10 -31t-5 -41t-2.5 -52.5zM102 583l-2 -1q-5 0 -16 15t-11 22q0 2 2 4l184 123l183 -123q2 -2 2 -4 q0 -7 -11 -22t-16 -15q-1 0 -2 1l-156 104z" />
<glyph unicode="&#xeb;" d="M254 0h-26t-26 2t-27.5 6t-24.5 12.5t-24 20.5t-19 31t-16 43.5t-9 59t-4 75.5q0 60 6.5 104.5t20.5 71t27.5 42.5t36.5 23t38.5 8.5t41.5 1.5q35 0 55.5 -2t44.5 -11t36.5 -26.5t24.5 -48t16.5 -77t4.5 -111.5h-303q1 -51 8.5 -86.5t17 -53t28 -26.5t30.5 -10t35 -1h6 h157q6 0 6 -24t-6 -24h-156zM128 274h253q-1 50 -7 84.5t-14.5 53t-24.5 27.5t-29 11t-36 2q-4 0 -22 0.5t-22.5 0t-19.5 -2t-19 -5t-15.5 -9.5t-15 -15t-11 -22.5t-10 -31t-5 -41t-2.5 -52.5zM294 600q-7 0 -7 25t7 25h105q7 0 7 -25t-7 -25h-105zM119 600q-7 0 -7 25t7 25 h105q6 0 6 -25t-6 -25h-105z" />
<glyph unicode="&#xec;" d="M131 0q-7 0 -7 24t7 24h184v404h-244q-7 0 -7 24t7 24h292v-452h78q6 0 6 -24t-6 -24h-310zM366 586q-11 5 -71.5 29.5t-111.5 45.5t-51 24q0 8 8 24.5t12 16.5h2q9 -4 70.5 -29t112 -46.5t50.5 -24.5q0 -8 -8 -24t-12 -16h-1z" />
<glyph unicode="&#xed;" d="M131 0q-7 0 -7 24t7 24h184v404h-244q-7 0 -7 24t7 24h292v-452h78q6 0 6 -24t-6 -24h-310zM135 631q2 1 64.5 27t113.5 47t54 21q5 0 12.5 -16.5t7.5 -24.5q0 -4 -2 -5q-6 -3 -65.5 -27.5t-112 -45.5t-55.5 -21q-4 0 -12 16t-8 24q0 4 3 5z" />
<glyph unicode="&#xee;" d="M131 0q-7 0 -7 24t7 24h184v404h-244q-7 0 -7 24t7 24h292v-452h78q6 0 6 -24t-6 -24h-310zM103 583l-2 -1q-6 0 -16.5 16t-10.5 22q0 2 186 126q11 -8 59 -40.5t87 -59t39 -27.5q0 -7 -11 -22t-16 -15q-1 0 -2 1l-156 104q-101 -65 -157 -104z" />
<glyph unicode="&#xef;" d="M131 0q-7 0 -7 24t7 24h184v404h-244q-7 0 -7 24t7 24h292v-452h78q6 0 6 -24t-6 -24h-310zM295 600q-7 0 -7 25t7 25h105q6 0 6 -25t-6 -25h-105zM120 600q-7 0 -7 25t7 25h105q6 0 6 -25t-6 -25h-105z" />
<glyph unicode="&#xf0;" d="M262 0h-5q-22 0 -34 0.5t-33.5 5.5t-33.5 13.5t-27.5 27t-24 44.5t-14.5 67t-6 93t6 92.5t14 66.5t23 44.5t27 27.5t33 13.5t32.5 5t34.5 0.5h7q60 0 80 -11q-26 48 -68 82l-46 -45q-4 -5 -22 12q-18 18 -12 22l40 40q-23 17 -49 26q-5 2 3 25q11 22 16 21q35 -15 66 -36 l44 44q5 5 22 -13q17 -17 13 -21l-42 -42q56 -51 89.5 -122.5t36.5 -147.5q4 -33 4 -84q0 -42 -3.5 -76t-8.5 -59t-15.5 -44t-18 -31t-23 -20.5t-24 -12.5t-27.5 -6t-26.5 -2h-27.5zM262 48q54 0 72 9q50 25 54 167v27q0 59 -6.5 98.5t-15 60t-27 30.5t-31.5 11.5t-40 1.5 h-7q-57 0 -75 -10q-52 -28 -54 -180v-12q0 -59 7.5 -99.5t16.5 -60.5t28.5 -30.5t31.5 -11.5t37 -1h9z" />
<glyph unicode="&#xf1;" d="M84 6v487q0 7 24 7t24 -7v-45q14 23 36.5 35.5t40 14.5t45.5 2h11q25 0 37.5 -0.5t34.5 -5t33.5 -13.5t27 -27t23 -44.5t13 -67t5.5 -93.5v-243q0 -6 -24 -6q-25 0 -25 6v243q0 58 -6.5 97.5t-15 60t-26 31t-31 12.5t-39.5 2q-63 0 -84 -10q-51 -25 -55 -151 q-1 -15 -1 -33v-252q0 -6 -24 -6t-24 6zM107 581q-2 -2 -4 -2q-6 0 -21 11.5t-15 17.5q0 -1 2.5 2l7.5 9t11.5 13t17 14t22.5 13t28 10t33 4q36 0 78 -21t65 -21q15 0 29.5 4.5t24 11t16.5 13t11 10.5l4 5q6 0 21 -12t15 -18q0 3 -4 -2t-14 -15.5t-23 -20.5t-34.5 -17.5 t-44.5 -7.5q-35 0 -77 21t-66 21q-21 0 -41 -10.5t-30 -19.5t-12 -13z" />
<glyph unicode="&#xf2;" d="M265 0h-5q-23 0 -35 0.5t-33 5t-33.5 13.5t-28 27.5t-24 44.5t-14.5 66.5t-6 92.5q0 70 10.5 119t24.5 74t39 38.5t43 16t47 2.5q68 0 85 -4q74 -17 94 -126q10 -49 10 -120q0 -53 -6 -94t-13.5 -67.5t-24 -44.5t-27 -26.5t-34 -12.5t-33.5 -4.5t-36 -0.5zM265 47 q54 0 71 9q51 25 54 171v23q0 57 -6 96t-14.5 60t-25 31.5t-30 12.5t-37.5 2q-5 0 -22.5 0.5t-22 0t-19.5 -2t-19.5 -5.5t-16 -11t-15 -17t-11 -25.5t-9.5 -35.5t-4.5 -46.5t-2.5 -59.5q0 -59 7.5 -99.5t16.5 -60.5t28 -30.5t31.5 -11.5t37.5 -1h9zM366 586 q-11 5 -71.5 29.5t-111.5 45.5t-51 24q0 8 8 24.5t12 16.5h2q9 -4 70.5 -29t112 -46.5t50.5 -24.5q0 -8 -8 -24t-12 -16h-1z" />
<glyph unicode="&#xf3;" d="M265 0h-5q-23 0 -35 0.5t-33 5t-33.5 13.5t-28 27.5t-24 44.5t-14.5 66.5t-6 92.5q0 70 10.5 119t24.5 74t39 38.5t43 16t47 2.5q68 0 85 -4q74 -17 94 -126q10 -49 10 -120q0 -53 -6 -94t-13.5 -67.5t-24 -44.5t-27 -26.5t-34 -12.5t-33.5 -4.5t-36 -0.5zM265 47 q54 0 71 9q51 25 54 171v23q0 57 -6 96t-14.5 60t-25 31.5t-30 12.5t-37.5 2q-5 0 -22.5 0.5t-22 0t-19.5 -2t-19.5 -5.5t-16 -11t-15 -17t-11 -25.5t-9.5 -35.5t-4.5 -46.5t-2.5 -59.5q0 -59 7.5 -99.5t16.5 -60.5t28 -30.5t31.5 -11.5t37.5 -1h9zM135 631q2 1 64.5 27 t113.5 47t54 21q5 0 12.5 -16.5t7.5 -24.5q0 -4 -2 -5q-6 -3 -65.5 -27.5t-112 -45.5t-55.5 -21q-4 0 -12 16t-8 24q0 4 3 5z" />
<glyph unicode="&#xf4;" d="M265 -1h-26.5t-26.5 2t-28 6t-24.5 12.5t-24 20.5t-19 31t-16.5 44t-9 59.5t-4 76.5q0 52 6 92.5t14 66.5t23 44.5t27 27.5t33 13.5t32.5 5t34.5 0.5h7h7q20 0 30.5 -0.5t29 -3t29 -9.5t25 -18t22.5 -30t16.5 -44.5t12 -62.5t3.5 -83q0 -42 -3.5 -76t-8.5 -59t-15.5 -44 t-18 -31t-23 -20.5t-24 -12.5t-27.5 -6t-26.5 -2h-27.5zM265 48q54 0 71 8q50 24 55 161v33q0 59 -6.5 98.5t-15 60t-27 30.5t-31.5 11.5t-40 1.5h-7q-57 0 -75 -10q-52 -28 -54 -180v-12q0 -59 7.5 -99t16.5 -60t28 -30.5t31 -11.5t37 -1h10zM103 583q-4 -3 -19 16 q-12 21 -8 24q1 1 89 60t95 63q7 -4 94.5 -63t88.5 -60q6 -3 -8 -24q-14 -19 -19 -16q-1 1 -32 21.5t-70 46.5l-54 36q-13 -9 -54 -36t-71.5 -47t-31.5 -21z" />
<glyph unicode="&#xf5;" d="M262 -1h-26.5t-26.5 2t-28 6t-24.5 12.5t-24 20.5t-19 31t-16.5 44t-9 59.5t-4 76.5q0 52 6 92.5t14 66.5t23 44.5t27 27.5t33 13.5t32.5 5t34.5 0.5h7h7q20 0 30.5 -0.5t29 -3t29 -9.5t25 -18t22.5 -30t16.5 -44.5t12 -62.5t3.5 -83q0 -42 -3.5 -76t-8.5 -59t-15.5 -44 t-18 -31t-23 -20.5t-24 -12.5t-27.5 -6t-26.5 -2h-27.5zM262 48q54 0 71 8q50 24 55 161v33q0 59 -6.5 98.5t-15 60t-27 30.5t-31.5 11.5t-40 1.5h-7q-57 0 -75 -10q-52 -28 -54 -180v-12q0 -59 7.5 -99t16.5 -60t28 -30.5t31 -11.5t37 -1h10zM107 581q-2 -2 -4 -2 q-6 0 -21 11.5t-15 17.5q0 -1 2.5 2l7.5 9t11.5 13t17 14t22.5 13t28 10t33 4q36 0 78 -21t65 -21q15 0 29.5 4.5t24 11t16.5 13t11 10.5l4 5q6 0 21 -12t15 -18q0 3 -4 -2t-14 -15.5t-23 -20.5t-34.5 -17.5t-44.5 -7.5q-35 0 -77 21t-66 21q-21 0 -41 -10.5t-30 -19.5 t-12 -13z" />
<glyph unicode="&#xf6;" d="M265 -1h-26.5t-26.5 2t-28 6t-24.5 12.5t-24 20.5t-19 31t-16.5 44t-9 59.5t-4 76.5q0 52 6 92.5t14 66.5t23 44.5t27 27.5t33 13.5t32.5 5t34.5 0.5h7h7q20 0 30.5 -0.5t29 -3t29 -9.5t25 -18t22.5 -30t16.5 -44.5t12 -62.5t3.5 -83q0 -42 -3.5 -76t-8.5 -59t-15.5 -44 t-18 -31t-23 -20.5t-24 -12.5t-27.5 -6t-26.5 -2h-27.5zM265 48q54 0 71 8q50 24 55 161v33q0 59 -6.5 98.5t-15 60t-27 30.5t-31.5 11.5t-40 1.5h-7q-57 0 -75 -10q-52 -28 -54 -180v-12q0 -59 7.5 -99t16.5 -60t28 -30.5t31 -11.5t37 -1h10zM120 601q-7 0 -7 25q0 24 7 24 h105q6 0 6 -24q0 -25 -6 -25h-105zM295 601q-7 0 -7 25q0 24 7 24h105q7 0 7 -24q0 -25 -7 -25h-105z" />
<glyph unicode="&#xf7;" d="M239 169v61q0 6 25 6h8q16 0 16 -6v-61q0 -7 -24 -7q-25 0 -25 7zM127 336q-5 7 -5 30q0 14 15 16.5t82 1.5h60h39q77 0 79 -7v-37q-3 -6 -157 -6q-111 0 -113 2zM208 387q-2 8 -2 39q0 22 2 24q17 5 62 5q33 0 49 -5q2 -6 2 -39q0 -22 -2 -24q-17 -5 -61 -5q-37 0 -50 5 z" />
<glyph unicode="&#xf8;" d="M142 16l5 11q-64 48 -64 223q0 70 10.5 119t24.5 74t39 38.5t43 16t47 2.5q62 0 81 -5l3 8q1 3 5 3q7 0 23.5 -8t16.5 -13v-1l-3 -9q63 -47 63 -225q0 -71 -10.5 -120t-24 -74t-38.5 -38.5t-42.5 -15.5t-47.5 -2q-64 0 -83 5l-3 -8q-1 -2 -5 -2q-9 0 -24.5 7t-15.5 12v2z M170 81l139 368h-1l-23 2q-5 0 -15.5 0.5t-15.5 0.5q-54 -1 -73 -13q-49 -31 -49 -175q0 -142 38 -183zM210 51q11 -4 36 -4q6 0 21.5 -0.5t22 -0.5t19.5 2t19 5.5t16.5 10t15 17t11 26t9.5 35.5t5 47t2 61q0 132 -38 170q-92 -246 -139 -369z" />
<glyph unicode="&#xf9;" d="M259 0h-29.5t-27.5 2t-28 6.5t-24 12.5t-22.5 20.5t-18 31.5t-15 43.5t-8 58.5t-3.5 75v243q0 7 24 7t24 -7v-242q0 -59 6 -98t14.5 -60t26.5 -31.5t32 -12.5t40 -2h11q29 0 43 1t34.5 11t29.5 29.5t16.5 57.5t7.5 95v252q0 7 24 7t24 -7v-487q0 -6 -24 -6t-24 6v44 q-15 -24 -41 -36t-42 -13t-50 -1zM366 586q-11 5 -71.5 29.5t-111.5 45.5t-51 24q0 8 8 24.5t12 16.5h2q9 -4 70.5 -29t112 -46.5t50.5 -24.5q0 -8 -8 -24t-12 -16h-1z" />
<glyph unicode="&#xfa;" d="M259 0h-29.5t-27.5 2t-28 6.5t-24 12.5t-22.5 20.5t-18 31.5t-15 43.5t-8 58.5t-3.5 75v243q0 7 24 7t24 -7v-242q0 -59 6 -98t14.5 -60t26.5 -31.5t32 -12.5t40 -2h11q29 0 43 1t34.5 11t29.5 29.5t16.5 57.5t7.5 95v252q0 7 24 7t24 -7v-487q0 -6 -24 -6t-24 6v44 q-15 -24 -41 -36t-42 -13t-50 -1zM135 631q2 1 64.5 27t113.5 47t54 21q5 0 12.5 -16.5t7.5 -24.5q0 -4 -2 -5q-6 -3 -65.5 -27.5t-112 -45.5t-55.5 -21q-4 0 -12 16t-8 24q0 4 3 5z" />
<glyph unicode="&#xfb;" d="M259 0h-29.5t-27.5 2t-28 6.5t-24 12.5t-22.5 20.5t-18 31.5t-15 43.5t-8 58.5t-3.5 75v243q0 7 24 7t24 -7v-242q0 -59 6 -98t14.5 -60t26.5 -31.5t32 -12.5t40 -2h11q29 0 43 1t34.5 11t29.5 29.5t16.5 57.5t7.5 95v252q0 7 24 7t24 -7v-487q0 -6 -24 -6t-24 6v44 q-15 -24 -41 -36t-42 -13t-50 -1zM103 583l-2 -1q-6 0 -16.5 16t-10.5 22q0 2 186 126q11 -8 59 -40.5t87 -59t39 -27.5q0 -7 -11 -22t-16 -15q-1 0 -2 1l-156 104q-101 -65 -157 -104z" />
<glyph unicode="&#xfc;" d="M259 0h-29.5t-27.5 2t-28 6.5t-24 12.5t-22.5 20.5t-18 31.5t-15 43.5t-8 58.5t-3.5 75v243q0 7 24 7t24 -7v-242q0 -59 6 -98t14.5 -60t26.5 -31.5t32 -12.5t40 -2h11q29 0 43 1t34.5 11t29.5 29.5t16.5 57.5t7.5 95v252q0 7 24 7t24 -7v-487q0 -6 -24 -6t-24 6v44 q-15 -24 -41 -36t-42 -13t-50 -1zM295 600q-7 0 -7 25t7 25h105q6 0 6 -25t-6 -25h-105zM120 600q-7 0 -7 25t7 25h105q6 0 6 -25t-6 -25h-105z" />
<glyph unicode="&#xfd;" d="M112 -177q-6 0 -6 24q0 25 6 25h184q44 4 71 32t27 106v40q-21 -32 -49.5 -41t-71.5 -9q-73 0 -98 9q-71 27 -84 166q-3 33 -3 75v243q0 7 24 7t24 -7v-242q0 -44 3.5 -77t7.5 -54.5t15 -36t18 -22t24.5 -10.5t26 -3.5t31.5 -0.5h28q55 2 79.5 41t24.5 153v252q0 7 24 7 t24 -7v-483q0 -54 -13.5 -91.5t-30 -55.5t-45 -28t-43.5 -11t-41 -1h-157zM135 631q2 1 64.5 27t113.5 47t54 21q5 0 12.5 -16.5t7.5 -24.5q0 -4 -2 -5q-6 -3 -65.5 -27.5t-112 -45.5t-55.5 -21q-4 0 -12 16t-8 24q0 4 3 5z" />
<glyph unicode="&#xff;" d="M112 -177q-6 0 -6 24t6 24h156q23 0 35 1t32.5 8t31 20.5t19 41.5t8.5 68v41q-15 -25 -40 -37t-41.5 -13.5t-49.5 -1.5h-29.5t-27.5 2.5t-28 6.5t-24 12.5t-22.5 20.5t-17.5 31t-14.5 44t-8 59t-3.5 76v242q0 7 24 7t24 -7v-242q0 -34 2 -61.5t4.5 -47.5t9.5 -35.5 t11.5 -25.5t15.5 -16.5t16.5 -10t20.5 -5t21.5 -1.5h24.5q30 0 46 2t35 12t28.5 30t16 57t6.5 92v252q0 7 24 7q25 0 25 -7v-483q0 -39 -7 -70t-17 -50t-27 -33t-30 -20t-34 -9.5t-31 -4t-28 -0.5h-157zM120 601q-7 0 -7 25q0 24 7 24h105q6 0 6 -24q0 -25 -6 -25h-105z M295 601q-7 0 -7 25q0 24 7 24h105q7 0 7 -24q0 -25 -7 -25h-105z" />
<glyph unicode="&#x152;" d="M165 0q-23 0 -35.5 1t-33.5 7t-33 18t-26.5 35.5t-22.5 57.5t-13.5 86t-5.5 120q0 66 5 117t12.5 85t21 58t25.5 36.5t31 19t32.5 8t35.5 1.5q26 0 39 -1t31.5 -6t31.5 -18t24 -34v59h232q7 0 7 -25q0 -24 -7 -24h-183v-250h148q7 0 7 -25q0 -24 -7 -24h-148v-254h183 q7 0 7 -24t-7 -24h-232v59q-19 -40 -45.5 -49.5t-73.5 -9.5zM164 48q48 0 65 11q49 31 54 207q1 27 1 59q0 78 -6 131t-14 81.5t-24 43t-28.5 17.5t-35.5 3h-15q-25 1 -37 -0.5t-30.5 -15t-27.5 -41.5t-16 -83t-7 -136q0 -80 7 -135t15.5 -82.5t27 -41.5t30.5 -16t35 -2h6z " />
<glyph unicode="&#x153;" d="M144 -1q-22 0 -32.5 1.5t-31 7.5t-32 22t-24 42.5t-18.5 72t-6 106.5q0 71 9 120.5t20.5 74.5t32.5 38.5t35.5 15.5t38.5 2h8q29 0 44.5 -2.5t36.5 -21t34 -56.5q11 37 30 55.5t35.5 21.5t47.5 3q39 0 59.5 -3.5t40.5 -17.5t28 -44.5t13 -80.5t5 -130h-233q1 -50 5 -83.5 t10 -52t17.5 -28.5t21.5 -12t28 -2q5 0 14 0.5t13 0.5h105q6 0 6 -25q0 -24 -6 -24h-117q-26 0 -38.5 1.5t-31.5 8t-31.5 23.5t-21.5 46q-10 -29 -22.5 -46t-30 -24t-29 -8.5t-33.5 -1.5zM144 48h20.5t18 3.5t18 10t13.5 21t12 36t6 54.5t3 77q0 72 -5.5 115.5t-19 61.5 t-25.5 22.5t-35 4.5q-45 0 -59 -8q-40 -24 -43 -168v-27q0 -59 5.5 -99.5t12.5 -60.5t21.5 -30t23.5 -11.5t27 -1.5h6zM285 275h184q0 52 -4.5 86t-10 52.5t-18.5 27.5t-23 10.5t-30 1.5q-47 0 -61 -9q-34 -23 -37 -152v-17z" />
<glyph unicode="&#x178;" d="M237 6v319q-38 60 -84 130.5t-76 116.5t-36 56q-1 0 -1 2q0 4 15.5 15t22.5 11q3 0 183 -279q181 279 183 279q7 0 22.5 -11t15.5 -15l-1 -2l-195 -303v-319q0 -6 -25 -6q-24 0 -24 6zM295 750q-7 0 -7 25t7 25h105q6 0 6 -25t-6 -25h-105zM120 750q-7 0 -7 25t7 25h105 q6 0 6 -25t-6 -25h-105z" />
<glyph unicode="&#x2c6;" d="M103 583q-4 -3 -19 16q-12 21 -8 24q1 1 89 60t95 63q7 -4 94.5 -63t88.5 -60q6 -3 -8 -24q-14 -19 -19 -16q-1 1 -32 21.5t-70 46.5l-54 36q-13 -9 -54 -36t-71.5 -47t-31.5 -21z" />
<glyph unicode="&#x2dc;" d="M107 581q-2 -2 -4 -2q-6 0 -21 11.5t-15 17.5q0 -1 2.5 2l7.5 9t11.5 13t17 14t22.5 13t28 10t33 4q36 0 78 -21t65 -21q15 0 29.5 4.5t24 11t16.5 13t11 10.5l4 5q6 0 21 -12t15 -18q0 3 -4 -2t-14 -15.5t-23 -20.5t-34.5 -17.5t-44.5 -7.5q-35 0 -77 21t-66 21 q-21 0 -41 -10.5t-30 -19.5t-12 -13z" />
<glyph unicode="&#x2000;" horiz-adv-x="438" />
<glyph unicode="&#x2001;" horiz-adv-x="876" />
<glyph unicode="&#x2002;" horiz-adv-x="438" />
<glyph unicode="&#x2003;" horiz-adv-x="876" />
<glyph unicode="&#x2004;" horiz-adv-x="292" />
<glyph unicode="&#x2005;" horiz-adv-x="219" />
<glyph unicode="&#x2006;" horiz-adv-x="146" />
<glyph unicode="&#x2007;" horiz-adv-x="146" />
<glyph unicode="&#x2008;" horiz-adv-x="109" />
<glyph unicode="&#x2009;" horiz-adv-x="175" />
<glyph unicode="&#x200a;" horiz-adv-x="48" />
<glyph unicode="&#x2010;" d="M101 302q-6 0 -6 24t6 24h317q7 0 7 -24t-7 -24h-317z" />
<glyph unicode="&#x2011;" d="M101 302q-6 0 -6 24t6 24h317q7 0 7 -24t-7 -24h-317z" />
<glyph unicode="&#x2012;" d="M101 302q-6 0 -6 24t6 24h317q7 0 7 -24t-7 -24h-317z" />
<glyph unicode="&#x2013;" d="M62 302q-7 0 -7 24t7 24h397q6 0 6 -24t-6 -24h-397z" />
<glyph unicode="&#x2014;" d="M42 302q-7 0 -7 24t7 24h437q6 0 6 -24t-6 -24h-437z" />
<glyph unicode="&#x2018;" d="M227 613v112q0 6 22 6q21 0 21 -6v-68h11q6 0 6 -21q0 -23 -6 -23h-54z" />
<glyph unicode="&#x2019;" d="M248 574v68h-11q-6 0 -6 22v6q0 16 8 16h52v-112q0 -6 -21 -6q-22 0 -22 6z" />
<glyph unicode="&#x201a;" d="M249 -75v68h-12q-6 0 -6 21v6q0 16 6 16h55v-111q0 -6 -22 -6q-21 0 -21 6z" />
<glyph unicode="&#x201c;" d="M260 725v-68h11q6 0 6 -21v-7q0 -16 -7 -16h-53v112q0 6 22 6q21 0 21 -6zM280 725v-68h11q6 0 6 -21v-7q0 -16 -7 -16h-53v112q0 6 22 6q21 0 21 -6z" />
<glyph unicode="&#x201d;" d="M206 574v68h-12q-6 0 -6 22v6q0 16 6 16h55v-112q0 -6 -22 -6q-21 0 -21 6zM291 574v68h-12q-6 0 -6 22v6q0 16 6 16h55v-112q0 -6 -22 -6q-21 0 -21 6z" />
<glyph unicode="&#x201e;" horiz-adv-x="515" d="M231 -32v92q0 7 25 7h8q16 -2 16 -7v-92q0 -6 -24 -6h-8q-17 0 -17 6zM235 -32v92q0 7 25 7h8q17 -2 17 -7v-92q0 -6 -25 -6h-8q-17 0 -17 6z" />
<glyph unicode="&#x2022;" d="M295 288h-72q-11 1 -11 40q0 36 11 36h72q12 0 12 -37q0 -39 -12 -39z" />
<glyph unicode="&#x2026;" d="M185 5v61q0 7 25 7h8q16 -2 16 -7v-61q0 -5 -24 -5h-8q-17 0 -17 5zM266 5v61q0 7 25 7h8q17 -2 17 -7v-61q0 -5 -25 -5h-8q-17 0 -17 5zM250 5v61q0 7 25 7h8q16 -2 16 -7v-61q0 -5 -24 -5h-8q-17 0 -17 5z" />
<glyph unicode="&#x202f;" horiz-adv-x="175" />
<glyph unicode="&#x2039;" d="M341 137l-189 189q187 187 189 188q2 2 3 2q5 0 19 -13.5t14 -19.5q0 -1 -5.5 -7.5t-19.5 -20t-30 -29t-45 -44.5t-57 -56q28 -28 57 -56.5t45 -44.5t30 -29.5t19.5 -20t5.5 -7.5q0 -6 -14 -19.5t-19 -13.5q-1 0 -3 2z" />
<glyph unicode="&#x203a;" d="M145 171l155 155l-155 154q-1 1 -1 3q0 5 13.5 19t18.5 14q1 0 3 -2q45 -43 190 -188q-191 -191 -193 -191q-5 0 -18.5 14t-13.5 19q0 2 1 3z" />
<glyph unicode="&#x205f;" horiz-adv-x="219" />
<glyph unicode="&#x20ac;" d="M281 0q-32 0 -52 2.5t-50 16.5t-49 39.5t-35 76.5t-21 123h-49q-6 0 -6 25q0 24 6 24h46v37h-46q-6 0 -6 24t6 24h49q4 61 14.5 106.5t28.5 72.5t35.5 44t44.5 24t45.5 9t48.5 2q16 0 26.5 -0.5t32 -4t36.5 -10.5t34 -21t31 -33.5t20 -51t8 -70.5q0 -7 -25 -7t-25 7 q0 31 -6 54.5t-13 38.5t-22 25.5t-23.5 15t-27 7t-24 2.5h-21.5q-21 0 -30.5 -0.5t-28 -2.5t-27.5 -7.5t-23.5 -15t-22.5 -25t-17 -37t-14 -52.5t-7 -70h219q7 0 7 -24t-7 -24h-222v-37h222q7 0 7 -24q0 -25 -7 -25h-219q3 -44 10.5 -78.5t15.5 -56.5t22.5 -37t24 -22 t29 -10.5t28 -4t28.5 -0.5q22 0 33.5 0.5t32.5 4t32.5 12t24.5 23t19 39t6 57.5q0 6 25 6q24 0 24 -6q0 -39 -8.5 -69t-19.5 -49.5t-31 -33t-34.5 -20t-38 -9.5t-34.5 -3.5t-30 -0.5z" />
<glyph unicode="&#x25fc;" horiz-adv-x="510" d="M0 510h510v-510h-510v510z" />
</font>
</defs>
</svg>
